<svg width="16" height="22" viewBox="0 0 16 22" fill="none" xmlns="http://www.w3.org/2000/svg">
<path d="M7.97044 11.1677C10.0097 11.1677 11.663 9.51405 11.663 7.47513C11.663 5.43564 10.0096 3.78258 7.97044 3.78258C5.931 3.78258 4.27792 5.43563 4.27788 7.47506L7.97044 11.1677ZM7.97044 11.1677C5.93101 11.1677 4.27763 9.51412 4.27788 7.47513L7.97044 11.1677ZM7.97043 20.4712C8.15658 20.2067 8.39912 19.8583 8.68132 19.4445C9.35239 18.4606 10.2463 17.1086 11.1395 15.6345C12.0337 14.1588 12.9217 12.5695 13.5846 11.1094C14.2564 9.62968 14.6638 8.35207 14.6638 7.47487C14.6638 3.77842 11.6669 0.781494 7.97044 0.781494C4.27372 0.781494 1.27706 3.77816 1.27706 7.47487C1.27706 8.35213 1.68449 9.62978 2.3563 11.1096C3.01918 12.5696 3.90719 14.1589 4.80137 15.6346C5.69453 17.1087 6.58848 18.4606 7.25955 19.4446C7.54175 19.8584 7.78429 20.2067 7.97043 20.4712Z" fill="white" stroke="#626262"/>
</svg>
