<svg width="272" height="74" viewBox="0 0 272 74" fill="none" xmlns="http://www.w3.org/2000/svg">
<g filter="url(#filter0_d_10_139)">
<path d="M39.6725 39V24.7055H34.164V22.44H47.5845V24.7055H42.076V39H39.6725ZM53.0915 39.345C51.8572 39.345 50.7724 39.0767 49.837 38.54C48.9094 37.9957 48.1849 37.2405 47.6635 36.2745C47.1499 35.3008 46.893 34.1738 46.893 32.8935C46.893 31.5365 47.146 30.3597 47.652 29.363C48.1657 28.3663 48.8787 27.5958 49.791 27.0515C50.7034 26.5072 51.7652 26.235 52.9765 26.235C54.2415 26.235 55.3187 26.5302 56.208 27.1205C57.0974 27.7032 57.7605 28.535 58.1975 29.616C58.6422 30.697 58.8185 31.9812 58.7265 33.4685H56.323V32.5945C56.3077 31.1532 56.0317 30.0875 55.495 29.3975C54.966 28.7075 54.1572 28.3625 53.0685 28.3625C51.8649 28.3625 50.9602 28.742 50.3545 29.501C49.7489 30.26 49.446 31.3563 49.446 32.79C49.446 34.1547 49.7489 35.2127 50.3545 35.964C50.9602 36.7077 51.8342 37.0795 52.9765 37.0795C53.7279 37.0795 54.3757 36.9108 54.92 36.5735C55.472 36.2285 55.9014 35.7378 56.208 35.1015L58.5655 35.849C58.0825 36.9607 57.3504 37.8232 56.369 38.4365C55.3877 39.0422 54.2952 39.345 53.0915 39.345ZM48.664 33.4685V31.594H57.5305V33.4685H48.664ZM66.6197 39.345C65.347 39.345 64.266 39.0613 63.3767 38.494C62.4873 37.9267 61.805 37.1485 61.3297 36.1595C60.862 35.1705 60.6243 34.0473 60.6167 32.79C60.6243 31.5097 60.8697 30.3788 61.3527 29.3975C61.8357 28.4085 62.5257 27.6342 63.4227 27.0745C64.3197 26.5148 65.3968 26.235 66.6542 26.235C68.0112 26.235 69.1688 26.5723 70.1272 27.247C71.0932 27.9217 71.7295 28.8455 72.0362 30.0185L69.6442 30.7085C69.4065 30.0108 69.0155 29.4703 68.4712 29.087C67.9345 28.696 67.3173 28.5005 66.6197 28.5005C65.83 28.5005 65.1822 28.6883 64.6762 29.064C64.1702 29.432 63.7945 29.938 63.5492 30.582C63.3038 31.226 63.1773 31.962 63.1697 32.79C63.1773 34.0703 63.4687 35.1053 64.0437 35.895C64.6263 36.6847 65.485 37.0795 66.6197 37.0795C67.394 37.0795 68.0188 36.9032 68.4942 36.5505C68.9772 36.1902 69.3452 35.6765 69.5982 35.0095L72.0362 35.5845C71.6298 36.7958 70.959 37.7273 70.0237 38.379C69.0883 39.023 67.9537 39.345 66.6197 39.345ZM83.0959 39V32.8935C83.0959 32.4105 83.0538 31.916 82.9694 31.41C82.8928 30.8963 82.7394 30.421 82.5094 29.984C82.2871 29.547 81.9689 29.1943 81.5549 28.926C81.1486 28.6577 80.6158 28.5235 79.9564 28.5235C79.5271 28.5235 79.1208 28.5963 78.7374 28.742C78.3541 28.88 78.0168 29.1062 77.7254 29.4205C77.4418 29.7348 77.2156 30.1488 77.0469 30.6625C76.8859 31.1762 76.8054 31.801 76.8054 32.537L75.3104 31.9735C75.3104 30.8465 75.5213 29.8537 75.9429 28.995C76.3646 28.1287 76.9703 27.454 77.7599 26.971C78.5496 26.488 79.5041 26.2465 80.6234 26.2465C81.4821 26.2465 82.2028 26.3845 82.7854 26.6605C83.3681 26.9365 83.8396 27.3007 84.1999 27.753C84.5679 28.1977 84.8478 28.6845 85.0394 29.2135C85.2311 29.7425 85.3614 30.26 85.4304 30.766C85.4994 31.272 85.5339 31.7167 85.5339 32.1V39H83.0959ZM74.3674 39V22.44H76.5179V31.3755H76.8054V39H74.3674ZM91.2877 39V24.7055H85.7792V22.44H99.1997V24.7055H93.6912V39H91.2877ZM102.93 39.345C102.01 39.345 101.24 39.1763 100.619 38.839C99.9979 38.494 99.5264 38.0417 99.2044 37.482C98.89 36.9147 98.7329 36.2937 98.7329 35.619C98.7329 34.9903 98.844 34.4383 99.0664 33.963C99.2887 33.4877 99.6184 33.0852 100.055 32.7555C100.492 32.4182 101.029 32.146 101.665 31.939C102.217 31.778 102.842 31.6362 103.54 31.5135C104.238 31.3908 104.97 31.2758 105.736 31.1685C106.511 31.0612 107.277 30.9538 108.036 30.8465L107.162 31.3295C107.178 30.3558 106.971 29.6352 106.541 29.1675C106.12 28.6922 105.391 28.4545 104.356 28.4545C103.705 28.4545 103.107 28.6078 102.562 28.9145C102.018 29.2135 101.639 29.7118 101.424 30.4095L99.1814 29.7195C99.488 28.6538 100.071 27.8067 100.929 27.178C101.796 26.5493 102.946 26.235 104.379 26.235C105.491 26.235 106.457 26.4267 107.277 26.81C108.105 27.1857 108.711 27.7837 109.094 28.604C109.294 29.0103 109.416 29.4397 109.462 29.892C109.508 30.3443 109.531 30.8312 109.531 31.3525V39H107.404V36.1595L107.818 36.5275C107.304 37.4782 106.649 38.1873 105.851 38.655C105.062 39.115 104.088 39.345 102.93 39.345ZM103.356 37.3785C104.038 37.3785 104.625 37.2597 105.115 37.022C105.606 36.7767 106.001 36.4662 106.3 36.0905C106.599 35.7148 106.794 35.3238 106.886 34.9175C107.017 34.5495 107.09 34.1355 107.105 33.6755C107.128 33.2155 107.139 32.8475 107.139 32.5715L107.921 32.859C107.162 32.974 106.472 33.0775 105.851 33.1695C105.23 33.2615 104.667 33.3535 104.161 33.4455C103.663 33.5298 103.218 33.6333 102.827 33.756C102.497 33.871 102.202 34.009 101.941 34.17C101.688 34.331 101.485 34.5265 101.332 34.7565C101.186 34.9865 101.113 35.2663 101.113 35.596C101.113 35.918 101.194 36.217 101.355 36.493C101.516 36.7613 101.761 36.976 102.091 37.137C102.421 37.298 102.842 37.3785 103.356 37.3785ZM112.748 39V22.095H115.151V39H112.748ZM124.113 39.345C122.879 39.345 121.794 39.0767 120.859 38.54C119.931 37.9957 119.206 37.2405 118.685 36.2745C118.171 35.3008 117.915 34.1738 117.915 32.8935C117.915 31.5365 118.168 30.3597 118.674 29.363C119.187 28.3663 119.9 27.5958 120.813 27.0515C121.725 26.5072 122.787 26.235 123.998 26.235C125.263 26.235 126.34 26.5302 127.23 27.1205C128.119 27.7032 128.782 28.535 129.219 29.616C129.664 30.697 129.84 31.9812 129.748 33.4685H127.345V32.5945C127.329 31.1532 127.053 30.0875 126.517 29.3975C125.988 28.7075 125.179 28.3625 124.09 28.3625C122.886 28.3625 121.982 28.742 121.376 29.501C120.77 30.26 120.468 31.3563 120.468 32.79C120.468 34.1547 120.77 35.2127 121.376 35.964C121.982 36.7077 122.856 37.0795 123.998 37.0795C124.749 37.0795 125.397 36.9108 125.942 36.5735C126.494 36.2285 126.923 35.7378 127.23 35.1015L129.587 35.849C129.104 36.9607 128.372 37.8232 127.391 38.4365C126.409 39.0422 125.317 39.345 124.113 39.345ZM119.686 33.4685V31.594H128.552V33.4685H119.686ZM140.708 39V32.8935C140.708 32.4105 140.666 31.916 140.582 31.41C140.505 30.8963 140.352 30.421 140.122 29.984C139.899 29.547 139.581 29.1943 139.167 28.926C138.761 28.6577 138.228 28.5235 137.569 28.5235C137.139 28.5235 136.733 28.5963 136.35 28.742C135.966 28.88 135.629 29.1062 135.338 29.4205C135.054 29.7348 134.828 30.1488 134.659 30.6625C134.498 31.1762 134.418 31.801 134.418 32.537L132.923 31.9735C132.923 30.8465 133.134 29.8537 133.555 28.995C133.977 28.1287 134.583 27.454 135.372 26.971C136.162 26.488 137.116 26.2465 138.236 26.2465C139.094 26.2465 139.815 26.3845 140.398 26.6605C140.98 26.9365 141.452 27.3007 141.812 27.753C142.18 28.1977 142.46 28.6845 142.652 29.2135C142.843 29.7425 142.974 30.26 143.043 30.766C143.112 31.272 143.146 31.7167 143.146 32.1V39H140.708ZM131.98 39V26.58H134.13V30.168H134.418V39H131.98ZM153.249 39C152.467 39.1533 151.7 39.2185 150.949 39.1955C150.197 39.1725 149.526 39.0268 148.936 38.7585C148.346 38.4902 147.901 38.0685 147.602 37.4935C147.334 36.9798 147.188 36.4585 147.165 35.9295C147.15 35.3928 147.142 34.7872 147.142 34.1125V23.13H149.557V33.9975C149.557 34.4958 149.561 34.929 149.569 35.297C149.584 35.665 149.664 35.9755 149.81 36.2285C150.086 36.7038 150.523 36.976 151.121 37.045C151.727 37.1063 152.436 37.0795 153.249 36.9645V39ZM144.762 28.512V26.58H153.249V28.512H144.762ZM155.867 39V22.44H158.041L164.044 34.8945L170.012 22.44H172.209V38.9885H169.932V27.661L164.584 39H163.492L158.133 27.661V39H155.867ZM178.938 39.345C178.018 39.345 177.248 39.1763 176.627 38.839C176.006 38.494 175.534 38.0417 175.212 37.482C174.898 36.9147 174.741 36.2937 174.741 35.619C174.741 34.9903 174.852 34.4383 175.074 33.963C175.297 33.4877 175.626 33.0852 176.063 32.7555C176.5 32.4182 177.037 32.146 177.673 31.939C178.225 31.778 178.85 31.6362 179.548 31.5135C180.245 31.3908 180.978 31.2758 181.744 31.1685C182.519 31.0612 183.285 30.9538 184.044 30.8465L183.17 31.3295C183.186 30.3558 182.979 29.6352 182.549 29.1675C182.128 28.6922 181.399 28.4545 180.364 28.4545C179.713 28.4545 179.115 28.6078 178.57 28.9145C178.026 29.2135 177.646 29.7118 177.432 30.4095L175.189 29.7195C175.496 28.6538 176.079 27.8067 176.937 27.178C177.804 26.5493 178.954 26.235 180.387 26.235C181.499 26.235 182.465 26.4267 183.285 26.81C184.113 27.1857 184.719 27.7837 185.102 28.604C185.302 29.0103 185.424 29.4397 185.47 29.892C185.516 30.3443 185.539 30.8312 185.539 31.3525V39H183.412V36.1595L183.826 36.5275C183.312 37.4782 182.657 38.1873 181.859 38.655C181.07 39.115 180.096 39.345 178.938 39.345ZM179.364 37.3785C180.046 37.3785 180.633 37.2597 181.123 37.022C181.614 36.7767 182.009 36.4662 182.308 36.0905C182.607 35.7148 182.802 35.3238 182.894 34.9175C183.025 34.5495 183.097 34.1355 183.113 33.6755C183.136 33.2155 183.147 32.8475 183.147 32.5715L183.929 32.859C183.17 32.974 182.48 33.0775 181.859 33.1695C181.238 33.2615 180.675 33.3535 180.169 33.4455C179.67 33.5298 179.226 33.6333 178.835 33.756C178.505 33.871 178.21 34.009 177.949 34.17C177.696 34.331 177.493 34.5265 177.34 34.7565C177.194 34.9865 177.121 35.2663 177.121 35.596C177.121 35.918 177.202 36.217 177.363 36.493C177.524 36.7613 177.769 36.976 178.099 37.137C178.428 37.298 178.85 37.3785 179.364 37.3785ZM195.632 39C194.85 39.1533 194.084 39.2185 193.332 39.1955C192.581 39.1725 191.91 39.0268 191.32 38.7585C190.73 38.4902 190.285 38.0685 189.986 37.4935C189.718 36.9798 189.572 36.4585 189.549 35.9295C189.534 35.3928 189.526 34.7872 189.526 34.1125V23.13H191.941V33.9975C191.941 34.4958 191.945 34.929 191.952 35.297C191.968 35.665 192.048 35.9755 192.194 36.2285C192.47 36.7038 192.907 36.976 193.505 37.045C194.111 37.1063 194.82 37.0795 195.632 36.9645V39ZM187.145 28.512V26.58H195.632V28.512H187.145ZM203.002 39.345C201.73 39.345 200.649 39.0613 199.759 38.494C198.87 37.9267 198.188 37.1485 197.712 36.1595C197.245 35.1705 197.007 34.0473 196.999 32.79C197.007 31.5097 197.252 30.3788 197.735 29.3975C198.218 28.4085 198.908 27.6342 199.805 27.0745C200.702 26.5148 201.78 26.235 203.037 26.235C204.394 26.235 205.552 26.5723 206.51 27.247C207.476 27.9217 208.112 28.8455 208.419 30.0185L206.027 30.7085C205.789 30.0108 205.398 29.4703 204.854 29.087C204.317 28.696 203.7 28.5005 203.002 28.5005C202.213 28.5005 201.565 28.6883 201.059 29.064C200.553 29.432 200.177 29.938 199.932 30.582C199.687 31.226 199.56 31.962 199.552 32.79C199.56 34.0703 199.851 35.1053 200.426 35.895C201.009 36.6847 201.868 37.0795 203.002 37.0795C203.777 37.0795 204.402 36.9032 204.877 36.5505C205.36 36.1902 205.728 35.6765 205.981 35.0095L208.419 35.5845C208.013 36.7958 207.342 37.7273 206.406 38.379C205.471 39.023 204.336 39.345 203.002 39.345ZM219.479 39V32.8935C219.479 32.4105 219.437 31.916 219.352 31.41C219.276 30.8963 219.122 30.421 218.892 29.984C218.67 29.547 218.352 29.1943 217.938 28.926C217.531 28.6577 216.999 28.5235 216.339 28.5235C215.91 28.5235 215.504 28.5963 215.12 28.742C214.737 28.88 214.4 29.1062 214.108 29.4205C213.825 29.7348 213.598 30.1488 213.43 30.6625C213.269 31.1762 213.188 31.801 213.188 32.537L211.693 31.9735C211.693 30.8465 211.904 29.8537 212.326 28.995C212.747 28.1287 213.353 27.454 214.143 26.971C214.932 26.488 215.887 26.2465 217.006 26.2465C217.865 26.2465 218.586 26.3845 219.168 26.6605C219.751 26.9365 220.222 27.3007 220.583 27.753C220.951 28.1977 221.231 28.6845 221.422 29.2135C221.614 29.7425 221.744 30.26 221.813 30.766C221.882 31.272 221.917 31.7167 221.917 32.1V39H219.479ZM210.75 39V22.44H212.901V31.3755H213.188V39H210.75Z" fill="black"/>
<g filter="url(#filter1_d_10_139)">
<path d="M190.184 65.8774V50.0374H192.483V65.8774H190.184ZM203.464 65.8774C202.716 66.0241 201.983 66.0864 201.264 66.0644C200.546 66.0424 199.904 65.9031 199.339 65.6464C198.775 65.3898 198.349 64.9864 198.063 64.4364C197.807 63.9451 197.667 63.4464 197.645 62.9404C197.631 62.4271 197.623 61.8478 197.623 61.2024V50.6974H199.933V61.0924C199.933 61.5691 199.937 61.9834 199.944 62.3354C199.959 62.6874 200.036 62.9844 200.175 63.2264C200.439 63.6811 200.857 63.9414 201.429 64.0074C202.009 64.0661 202.687 64.0404 203.464 63.9304V65.8774ZM195.346 55.8454V53.9974H203.464V55.8454H195.346ZM210.204 66.2074C209.324 66.2074 208.587 66.0461 207.993 65.7234C207.399 65.3934 206.948 64.9608 206.64 64.4254C206.339 63.8828 206.189 63.2888 206.189 62.6434C206.189 62.0421 206.295 61.5141 206.508 61.0594C206.721 60.6048 207.036 60.2198 207.454 59.9044C207.872 59.5818 208.385 59.3214 208.994 59.1234C209.522 58.9694 210.12 58.8338 210.787 58.7164C211.454 58.5991 212.155 58.4891 212.888 58.3864C213.629 58.2838 214.362 58.1811 215.088 58.0784L214.252 58.5404C214.267 57.6091 214.069 56.9198 213.658 56.4724C213.255 56.0178 212.558 55.7904 211.568 55.7904C210.945 55.7904 210.373 55.9371 209.852 56.2304C209.331 56.5164 208.968 56.9931 208.763 57.6604L206.618 57.0004C206.911 55.9811 207.469 55.1708 208.29 54.5694C209.119 53.9681 210.219 53.6674 211.59 53.6674C212.653 53.6674 213.577 53.8508 214.362 54.2174C215.154 54.5768 215.733 55.1488 216.1 55.9334C216.291 56.3221 216.408 56.7328 216.452 57.1654C216.496 57.5981 216.518 58.0638 216.518 58.5624V65.8774H214.483V63.1604L214.879 63.5124C214.388 64.4218 213.761 65.1001 212.998 65.5474C212.243 65.9874 211.311 66.2074 210.204 66.2074ZM210.611 64.3264C211.264 64.3264 211.825 64.2128 212.294 63.9854C212.763 63.7508 213.141 63.4538 213.427 63.0944C213.713 62.7351 213.9 62.3611 213.988 61.9724C214.113 61.6204 214.182 61.2244 214.197 60.7844C214.219 60.3444 214.23 59.9924 214.23 59.7284L214.978 60.0034C214.252 60.1134 213.592 60.2124 212.998 60.3004C212.404 60.3884 211.865 60.4764 211.381 60.5644C210.904 60.6451 210.479 60.7441 210.105 60.8614C209.79 60.9714 209.507 61.1034 209.258 61.2574C209.016 61.4114 208.822 61.5984 208.675 61.8184C208.536 62.0384 208.466 62.3061 208.466 62.6214C208.466 62.9294 208.543 63.2154 208.697 63.4794C208.851 63.7361 209.086 63.9414 209.401 64.0954C209.716 64.2494 210.12 64.3264 210.611 64.3264ZM220.474 65.8774V49.7074H222.773V65.8774H220.474ZM227.177 52.0504V49.8174H229.476V52.0504H227.177ZM227.177 65.8774V53.9974H229.476V65.8774H227.177ZM237.014 66.2074C236.134 66.2074 235.397 66.0461 234.803 65.7234C234.209 65.3934 233.758 64.9608 233.45 64.4254C233.149 63.8828 232.999 63.2888 232.999 62.6434C232.999 62.0421 233.105 61.5141 233.318 61.0594C233.531 60.6048 233.846 60.2198 234.264 59.9044C234.682 59.5818 235.195 59.3214 235.804 59.1234C236.332 58.9694 236.93 58.8338 237.597 58.7164C238.264 58.5991 238.965 58.4891 239.698 58.3864C240.439 58.2838 241.172 58.1811 241.898 58.0784L241.062 58.5404C241.077 57.6091 240.879 56.9198 240.468 56.4724C240.065 56.0178 239.368 55.7904 238.378 55.7904C237.755 55.7904 237.183 55.9371 236.662 56.2304C236.141 56.5164 235.778 56.9931 235.573 57.6604L233.428 57.0004C233.721 55.9811 234.279 55.1708 235.1 54.5694C235.929 53.9681 237.029 53.6674 238.4 53.6674C239.463 53.6674 240.387 53.8508 241.172 54.2174C241.964 54.5768 242.543 55.1488 242.91 55.9334C243.101 56.3221 243.218 56.7328 243.262 57.1654C243.306 57.5981 243.328 58.0638 243.328 58.5624V65.8774H241.293V63.1604L241.689 63.5124C241.198 64.4218 240.571 65.1001 239.808 65.5474C239.053 65.9874 238.121 66.2074 237.014 66.2074ZM237.421 64.3264C238.074 64.3264 238.635 64.2128 239.104 63.9854C239.573 63.7508 239.951 63.4538 240.237 63.0944C240.523 62.7351 240.71 62.3611 240.798 61.9724C240.923 61.6204 240.992 61.2244 241.007 60.7844C241.029 60.3444 241.04 59.9924 241.04 59.7284L241.788 60.0034C241.062 60.1134 240.402 60.2124 239.808 60.3004C239.214 60.3884 238.675 60.4764 238.191 60.5644C237.714 60.6451 237.289 60.7441 236.915 60.8614C236.6 60.9714 236.317 61.1034 236.068 61.2574C235.826 61.4114 235.632 61.5984 235.485 61.8184C235.346 62.0384 235.276 62.3061 235.276 62.6214C235.276 62.9294 235.353 63.2154 235.507 63.4794C235.661 63.7361 235.896 63.9414 236.211 64.0954C236.526 64.2494 236.93 64.3264 237.421 64.3264Z" fill="black"/>
</g>
</g>
<defs>
<filter id="filter0_d_10_139" x="31.1639" y="22.095" width="215.164" height="51.1124" filterUnits="userSpaceOnUse" color-interpolation-filters="sRGB">
<feFlood flood-opacity="0" result="BackgroundImageFix"/>
<feColorMatrix in="SourceAlpha" type="matrix" values="0 0 0 0 0 0 0 0 0 0 0 0 0 0 0 0 0 0 127 0" result="hardAlpha"/>
<feOffset dy="4"/>
<feGaussianBlur stdDeviation="1.5"/>
<feComposite in2="hardAlpha" operator="out"/>
<feColorMatrix type="matrix" values="0 0 0 0 0.187778 0 0 0 0 0.704167 0 0 0 0 0.518267 0 0 0 0.25 0"/>
<feBlend mode="normal" in2="BackgroundImageFix" result="effect1_dropShadow_10_139"/>
<feBlend mode="normal" in="SourceGraphic" in2="effect1_dropShadow_10_139" result="shape"/>
</filter>
<filter id="filter1_d_10_139" x="190.184" y="46.7074" width="53.1439" height="19.5" filterUnits="userSpaceOnUse" color-interpolation-filters="sRGB">
<feFlood flood-opacity="0" result="BackgroundImageFix"/>
<feColorMatrix in="SourceAlpha" type="matrix" values="0 0 0 0 0 0 0 0 0 0 0 0 0 0 0 0 0 0 127 0" result="hardAlpha"/>
<feOffset dy="-3"/>
<feComposite in2="hardAlpha" operator="out"/>
<feColorMatrix type="matrix" values="0 0 0 0 0.866419 0 0 0 0 0.241771 0 0 0 0 0.879167 0 0 0 0.17 0"/>
<feBlend mode="normal" in2="BackgroundImageFix" result="effect1_dropShadow_10_139"/>
<feBlend mode="normal" in="SourceGraphic" in2="effect1_dropShadow_10_139" result="shape"/>
</filter>
</defs>
</svg>
