<svg width="113" height="116" viewBox="0 0 113 116" fill="none" xmlns="http://www.w3.org/2000/svg">
<path d="M43.6584 53C43.5826 52.053 43.2275 51.3144 42.593 50.7841C41.968 50.2538 41.0163 49.9886 39.7379 49.9886C38.9235 49.9886 38.2559 50.0881 37.7351 50.2869C37.2237 50.4763 36.8449 50.7367 36.5987 51.0682C36.3525 51.3996 36.2247 51.7784 36.2152 52.2045C36.1963 52.5549 36.2578 52.8722 36.3999 53.1562C36.5514 53.4309 36.7881 53.6818 37.1101 53.9091C37.4321 54.1269 37.844 54.3258 38.3459 54.5057C38.8478 54.6856 39.4444 54.8466 40.1357 54.9886L42.522 55.5C44.1319 55.8409 45.5097 56.2907 46.6555 56.8494C47.8014 57.4081 48.7389 58.0663 49.468 58.8239C50.1972 59.572 50.7322 60.4148 51.0732 61.3523C51.4235 62.2898 51.6035 63.3125 51.6129 64.4205C51.6035 66.3333 51.1252 67.9527 50.1783 69.2784C49.2313 70.6042 47.8771 71.6127 46.1158 72.304C44.3639 72.9953 42.2569 73.3409 39.7947 73.3409C37.2663 73.3409 35.0599 72.9669 33.1754 72.2188C31.3004 71.4706 29.8421 70.3201 28.8004 68.767C27.7682 67.2045 27.2474 65.2064 27.2379 62.7727H34.7379C34.7853 63.6629 35.0078 64.411 35.4055 65.017C35.8033 65.6231 36.362 66.0824 37.0817 66.3949C37.8108 66.7074 38.6773 66.8636 39.6811 66.8636C40.5239 66.8636 41.2294 66.7595 41.7976 66.5511C42.3658 66.3428 42.7966 66.054 43.0902 65.6847C43.3838 65.3153 43.5353 64.8939 43.5447 64.4205C43.5353 63.9754 43.3885 63.5871 43.1044 63.2557C42.8298 62.9148 42.3752 62.6117 41.7408 62.3466C41.1063 62.072 40.2493 61.8163 39.1697 61.5795L36.272 60.9545C33.6963 60.3958 31.665 59.4631 30.1783 58.1562C28.701 56.84 27.9671 55.0455 27.9766 52.7727C27.9671 50.9261 28.4595 49.3116 29.4538 47.929C30.4576 46.5369 31.8449 45.4527 33.6158 44.6761C35.3961 43.8996 37.4368 43.5114 39.7379 43.5114C42.0864 43.5114 44.1177 43.9044 45.8317 44.6903C47.5457 45.4763 48.8667 46.5843 49.7947 48.0142C50.7322 49.4347 51.2057 51.0966 51.2152 53H43.6584ZM66.6058 43.9091H74.3899V63.8523C74.3804 65.7462 73.9022 67.4129 72.9553 68.8523C72.0178 70.2822 70.7204 71.3996 69.0632 72.2045C67.4155 73 65.5168 73.3977 63.3672 73.3977C61.5017 73.3977 59.7971 73.0758 58.2536 72.4318C56.71 71.7784 55.4789 70.7557 54.5604 69.3636C53.6418 67.9621 53.1873 66.1439 53.1967 63.9091H61.0945C61.1229 64.6383 61.246 65.2538 61.4638 65.7557C61.6911 66.2576 62.0036 66.6364 62.4013 66.892C62.8085 67.1383 63.3009 67.2614 63.8786 67.2614C64.4657 67.2614 64.9581 67.1335 65.3558 66.8778C65.763 66.6222 66.0708 66.2434 66.2791 65.7415C66.4875 65.2301 66.5964 64.6004 66.6058 63.8523V43.9091ZM86.0305 43.9091V73H78.1328V43.9091H86.0305Z" fill="#001AFF"/>
<path d="M112.891 58.6464V62.554C109.383 62.554 106.924 63.2893 105.517 64.76C104.13 66.2306 103.437 68.6886 103.437 72.1341V82.2184C103.437 85.1176 103.153 87.6282 102.586 89.7501C102.04 91.872 101.137 93.6262 99.876 95.0128C98.6154 96.3994 96.9347 97.4289 94.8338 98.1011C92.7329 98.7734 90.1383 99.1096 87.05 99.1096V92.9329C89.4871 92.9329 91.3989 92.5443 92.7855 91.767C94.1931 91.0106 95.1805 89.8446 95.7477 88.269C96.336 86.6933 96.6301 84.6764 96.6301 82.2184V69.613C96.6301 67.9743 96.8402 66.4827 97.2604 65.1381C97.7016 63.7936 98.4999 62.6381 99.6554 61.6717C100.811 60.7052 102.45 59.9594 104.571 59.4342C106.714 58.909 109.488 58.6464 112.891 58.6464ZM87.05 18.4353C90.1383 18.4353 92.7329 18.7714 94.8338 19.4437C96.9347 20.116 98.6154 21.1454 99.876 22.532C101.137 23.9186 102.04 25.6729 102.586 27.7948C103.153 29.9167 103.437 32.4272 103.437 35.3265V45.4107C103.437 48.8562 104.13 51.3143 105.517 52.7849C106.924 54.2555 109.383 54.9908 112.891 54.9908V58.8985C109.488 58.8985 106.714 58.6359 104.571 58.1106C102.45 57.5854 100.811 56.8396 99.6554 55.8732C98.4999 54.9068 97.7016 53.7513 97.2604 52.4067C96.8402 51.0621 96.6301 49.5705 96.6301 47.9318V35.3265C96.6301 32.8684 96.336 30.8516 95.7477 29.2759C95.1805 27.6792 94.1931 26.5027 92.7855 25.7464C91.3989 24.9901 89.4871 24.6119 87.05 24.6119V18.4353ZM112.891 54.9908V62.554H105.454V54.9908H112.891Z" fill="black"/>
<path d="M0.897069 58.6464V62.554C4.40556 62.554 6.86361 63.2893 8.2712 64.76C9.65779 66.2306 10.3511 68.6886 10.3511 72.1341V82.2184C10.3511 85.1176 10.6347 87.6282 11.2019 89.7501C11.7482 91.872 12.6516 93.6262 13.9121 95.0128C15.1726 96.3994 16.8534 97.4289 18.9542 98.1011C21.0551 98.7734 23.6497 99.1096 26.7381 99.1096V92.9329C24.301 92.9329 22.3892 92.5443 21.0026 91.767C19.595 91.0106 18.6076 89.8446 18.0404 88.269C17.4521 86.6933 17.158 84.6764 17.158 82.2184V69.613C17.158 67.9743 16.9479 66.4827 16.5277 65.1381C16.0865 63.7936 15.2882 62.6381 14.1327 61.6717C12.9772 60.7052 11.3385 59.9594 9.21661 59.4342C7.07369 58.909 4.30052 58.6464 0.897069 58.6464ZM26.7381 18.4353C23.6497 18.4353 21.0551 18.7714 18.9542 19.4437C16.8534 20.116 15.1726 21.1454 13.9121 22.532C12.6516 23.9186 11.7482 25.6729 11.2019 27.7948C10.6347 29.9167 10.3511 32.4272 10.3511 35.3265V45.4107C10.3511 48.8562 9.65779 51.3143 8.2712 52.7849C6.86361 54.2555 4.40556 54.9908 0.897069 54.9908V58.8985C4.30052 58.8985 7.07369 58.6359 9.21661 58.1106C11.3385 57.5854 12.9772 56.8396 14.1327 55.8732C15.2882 54.9068 16.0865 53.7513 16.5277 52.4067C16.9479 51.0621 17.158 49.5705 17.158 47.9318V35.3265C17.158 32.8684 17.4521 30.8516 18.0404 29.2759C18.6076 27.6792 19.595 26.5027 21.0026 25.7464C22.3892 24.9901 24.301 24.6119 26.7381 24.6119V18.4353ZM0.897069 54.9908V62.554H8.33423V54.9908H0.897069Z" fill="black"/>
</svg>
