<svg width="273" height="79" viewBox="0 0 273 79" fill="none" xmlns="http://www.w3.org/2000/svg">
<rect x="1.65967" y="1.04391" width="255.236" height="58.5875" stroke="url(#paint0_angular_10_139)" stroke-width="2"/>
<path d="M40.3321 39.0439V24.7494H34.8236V22.4839H48.2441V24.7494H42.7356V39.0439H40.3321ZM53.7512 39.3889C52.5169 39.3889 51.432 39.1206 50.4967 38.5839C49.569 38.0396 48.8445 37.2844 48.3232 36.3184C47.8095 35.3447 47.5527 34.2177 47.5527 32.9374C47.5527 31.5804 47.8057 30.4036 48.3117 29.4069C48.8254 28.4102 49.5384 27.6397 50.4507 27.0954C51.363 26.5511 52.4249 26.2789 53.6362 26.2789C54.9012 26.2789 55.9784 26.5741 56.8677 27.1644C57.757 27.7471 58.4202 28.5789 58.8572 29.6599C59.3019 30.7409 59.4782 32.0251 59.3862 33.5124H56.9827V32.6384C56.9674 31.1971 56.6914 30.1314 56.1547 29.4414C55.6257 28.7514 54.8169 28.4064 53.7282 28.4064C52.5245 28.4064 51.6199 28.7859 51.0142 29.5449C50.4085 30.3039 50.1057 31.4002 50.1057 32.8339C50.1057 34.1986 50.4085 35.2566 51.0142 36.0079C51.6199 36.7516 52.4939 37.1234 53.6362 37.1234C54.3875 37.1234 55.0354 36.9547 55.5797 36.6174C56.1317 36.2724 56.561 35.7817 56.8677 35.1454L59.2252 35.8929C58.7422 37.0046 58.01 37.8671 57.0287 38.4804C56.0474 39.0861 54.9549 39.3889 53.7512 39.3889ZM49.3237 33.5124V31.6379H58.1902V33.5124H49.3237ZM67.2793 39.3889C66.0067 39.3889 64.9257 39.1052 64.0363 38.5379C63.147 37.9706 62.4647 37.1924 61.9893 36.2034C61.5217 35.2144 61.284 34.0912 61.2763 32.8339C61.284 31.5536 61.5293 30.4227 62.0123 29.4414C62.4953 28.4524 63.1853 27.6781 64.0823 27.1184C64.9793 26.5587 66.0565 26.2789 67.3138 26.2789C68.6708 26.2789 69.8285 26.6162 70.7868 27.2909C71.7528 27.9656 72.3892 28.8894 72.6958 30.0624L70.3038 30.7524C70.0662 30.0547 69.6752 29.5142 69.1308 29.1309C68.5942 28.7399 67.977 28.5444 67.2793 28.5444C66.4897 28.5444 65.8418 28.7322 65.3358 29.1079C64.8298 29.4759 64.4542 29.9819 64.2088 30.6259C63.9635 31.2699 63.837 32.0059 63.8293 32.8339C63.837 34.1142 64.1283 35.1492 64.7033 35.9389C65.286 36.7286 66.1447 37.1234 67.2793 37.1234C68.0537 37.1234 68.6785 36.9471 69.1538 36.5944C69.6368 36.2341 70.0048 35.7204 70.2578 35.0534L72.6958 35.6284C72.2895 36.8397 71.6187 37.7712 70.6833 38.4229C69.748 39.0669 68.6133 39.3889 67.2793 39.3889ZM83.7556 39.0439V32.9374C83.7556 32.4544 83.7134 31.9599 83.6291 31.4539C83.5524 30.9402 83.3991 30.4649 83.1691 30.0279C82.9468 29.5909 82.6286 29.2382 82.2146 28.9699C81.8083 28.7016 81.2754 28.5674 80.6161 28.5674C80.1868 28.5674 79.7804 28.6402 79.3971 28.7859C79.0138 28.9239 78.6764 29.1501 78.3851 29.4644C78.1014 29.7787 77.8753 30.1927 77.7066 30.7064C77.5456 31.2201 77.4651 31.8449 77.4651 32.5809L75.9701 32.0174C75.9701 30.8904 76.1809 29.8976 76.6026 29.0389C77.0243 28.1726 77.6299 27.4979 78.4196 27.0149C79.2093 26.5319 80.1638 26.2904 81.2831 26.2904C82.1418 26.2904 82.8624 26.4284 83.4451 26.7044C84.0278 26.9804 84.4993 27.3446 84.8596 27.7969C85.2276 28.2416 85.5074 28.7284 85.6991 29.2574C85.8908 29.7864 86.0211 30.3039 86.0901 30.8099C86.1591 31.3159 86.1936 31.7606 86.1936 32.1439V39.0439H83.7556ZM75.0271 39.0439V22.4839H77.1776V31.4194H77.4651V39.0439H75.0271ZM91.9474 39.0439V24.7494H86.4389V22.4839H99.8594V24.7494H94.3509V39.0439H91.9474ZM103.59 39.3889C102.67 39.3889 101.9 39.2202 101.279 38.8829C100.658 38.5379 100.186 38.0856 99.864 37.5259C99.5497 36.9586 99.3925 36.3376 99.3925 35.6629C99.3925 35.0342 99.5037 34.4822 99.726 34.0069C99.9484 33.5316 100.278 33.1291 100.715 32.7994C101.152 32.4621 101.689 32.1899 102.325 31.9829C102.877 31.8219 103.502 31.6801 104.2 31.5574C104.897 31.4347 105.629 31.3197 106.396 31.2124C107.17 31.1051 107.937 30.9977 108.696 30.8904L107.822 31.3734C107.837 30.3997 107.63 29.6791 107.201 29.2114C106.779 28.7361 106.051 28.4984 105.016 28.4984C104.364 28.4984 103.766 28.6517 103.222 28.9584C102.678 29.2574 102.298 29.7557 102.084 30.4534L99.841 29.7634C100.148 28.6977 100.73 27.8506 101.589 27.2219C102.455 26.5932 103.605 26.2789 105.039 26.2789C106.151 26.2789 107.117 26.4706 107.937 26.8539C108.765 27.2296 109.371 27.8276 109.754 28.6479C109.953 29.0542 110.076 29.4836 110.122 29.9359C110.168 30.3882 110.191 30.8751 110.191 31.3964V39.0439H108.064V36.2034L108.478 36.5714C107.964 37.5221 107.308 38.2312 106.511 38.6989C105.721 39.1589 104.748 39.3889 103.59 39.3889ZM104.016 37.4224C104.698 37.4224 105.284 37.3036 105.775 37.0659C106.266 36.8206 106.661 36.5101 106.96 36.1344C107.259 35.7587 107.454 35.3677 107.546 34.9614C107.676 34.5934 107.749 34.1794 107.765 33.7194C107.788 33.2594 107.799 32.8914 107.799 32.6154L108.581 32.9029C107.822 33.0179 107.132 33.1214 106.511 33.2134C105.89 33.3054 105.327 33.3974 104.821 33.4894C104.322 33.5737 103.878 33.6772 103.487 33.7999C103.157 33.9149 102.862 34.0529 102.601 34.2139C102.348 34.3749 102.145 34.5704 101.992 34.8004C101.846 35.0304 101.773 35.3102 101.773 35.6399C101.773 35.9619 101.854 36.2609 102.015 36.5369C102.176 36.8052 102.421 37.0199 102.751 37.1809C103.08 37.3419 103.502 37.4224 104.016 37.4224ZM113.407 39.0439V22.1389H115.811V39.0439H113.407ZM124.773 39.3889C123.538 39.3889 122.454 39.1206 121.518 38.5839C120.591 38.0396 119.866 37.2844 119.345 36.3184C118.831 35.3447 118.574 34.2177 118.574 32.9374C118.574 31.5804 118.827 30.4036 119.333 29.4069C119.847 28.4102 120.56 27.6397 121.472 27.0954C122.385 26.5511 123.446 26.2789 124.658 26.2789C125.923 26.2789 127 26.5741 127.889 27.1644C128.779 27.7471 129.442 28.5789 129.879 29.6599C130.323 30.7409 130.5 32.0251 130.408 33.5124H128.004V32.6384C127.989 31.1971 127.713 30.1314 127.176 29.4414C126.647 28.7514 125.838 28.4064 124.75 28.4064C123.546 28.4064 122.641 28.7859 122.036 29.5449C121.43 30.3039 121.127 31.4002 121.127 32.8339C121.127 34.1986 121.43 35.2566 122.036 36.0079C122.641 36.7516 123.515 37.1234 124.658 37.1234C125.409 37.1234 126.057 36.9547 126.601 36.6174C127.153 36.2724 127.583 35.7817 127.889 35.1454L130.247 35.8929C129.764 37.0046 129.032 37.8671 128.05 38.4804C127.069 39.0861 125.976 39.3889 124.773 39.3889ZM120.345 33.5124V31.6379H129.212V33.5124H120.345ZM141.368 39.0439V32.9374C141.368 32.4544 141.326 31.9599 141.241 31.4539C141.165 30.9402 141.011 30.4649 140.781 30.0279C140.559 29.5909 140.241 29.2382 139.827 28.9699C139.421 28.7016 138.888 28.5674 138.228 28.5674C137.799 28.5674 137.393 28.6402 137.009 28.7859C136.626 28.9239 136.289 29.1501 135.997 29.4644C135.714 29.7787 135.488 30.1927 135.319 30.7064C135.158 31.2201 135.077 31.8449 135.077 32.5809L133.582 32.0174C133.582 30.8904 133.793 29.8976 134.215 29.0389C134.637 28.1726 135.242 27.4979 136.032 27.0149C136.822 26.5319 137.776 26.2904 138.895 26.2904C139.754 26.2904 140.475 26.4284 141.057 26.7044C141.64 26.9804 142.112 27.3446 142.472 27.7969C142.84 28.2416 143.12 28.7284 143.311 29.2574C143.503 29.7864 143.633 30.3039 143.702 30.8099C143.771 31.3159 143.806 31.7606 143.806 32.1439V39.0439H141.368ZM132.639 39.0439V26.6239H134.79V30.2119H135.077V39.0439H132.639ZM153.908 39.0439C153.126 39.1972 152.36 39.2624 151.608 39.2394C150.857 39.2164 150.186 39.0707 149.596 38.8024C149.005 38.5341 148.561 38.1124 148.262 37.5374C147.993 37.0237 147.848 36.5024 147.825 35.9734C147.809 35.4367 147.802 34.8311 147.802 34.1564V23.1739H150.217V34.0414C150.217 34.5397 150.221 34.9729 150.228 35.3409C150.244 35.7089 150.324 36.0194 150.47 36.2724C150.746 36.7477 151.183 37.0199 151.781 37.0889C152.386 37.1502 153.096 37.1234 153.908 37.0084V39.0439ZM145.421 28.5559V26.6239H153.908V28.5559H145.421ZM156.527 39.0439V22.4839H158.7L164.703 34.9384L170.672 22.4839H172.868V39.0324H170.591V27.7049L165.244 39.0439H164.151L158.792 27.7049V39.0439H156.527ZM179.598 39.3889C178.678 39.3889 177.907 39.2202 177.286 38.8829C176.665 38.5379 176.194 38.0856 175.872 37.5259C175.558 36.9586 175.4 36.3376 175.4 35.6629C175.4 35.0342 175.512 34.4822 175.734 34.0069C175.956 33.5316 176.286 33.1291 176.723 32.7994C177.16 32.4621 177.697 32.1899 178.333 31.9829C178.885 31.8219 179.51 31.6801 180.207 31.5574C180.905 31.4347 181.637 31.3197 182.404 31.2124C183.178 31.1051 183.945 30.9977 184.704 30.8904L183.83 31.3734C183.845 30.3997 183.638 29.6791 183.209 29.2114C182.787 28.7361 182.059 28.4984 181.024 28.4984C180.372 28.4984 179.774 28.6517 179.23 28.9584C178.686 29.2574 178.306 29.7557 178.091 30.4534L175.849 29.7634C176.156 28.6977 176.738 27.8506 177.597 27.2219C178.463 26.5932 179.613 26.2789 181.047 26.2789C182.159 26.2789 183.125 26.4706 183.945 26.8539C184.773 27.2296 185.379 27.8276 185.762 28.6479C185.961 29.0542 186.084 29.4836 186.13 29.9359C186.176 30.3882 186.199 30.8751 186.199 31.3964V39.0439H184.071V36.2034L184.485 36.5714C183.972 37.5221 183.316 38.2312 182.519 38.6989C181.729 39.1589 180.756 39.3889 179.598 39.3889ZM180.023 37.4224C180.706 37.4224 181.292 37.3036 181.783 37.0659C182.274 36.8206 182.668 36.5101 182.967 36.1344C183.266 35.7587 183.462 35.3677 183.554 34.9614C183.684 34.5934 183.757 34.1794 183.772 33.7194C183.795 33.2594 183.807 32.8914 183.807 32.6154L184.589 32.9029C183.83 33.0179 183.14 33.1214 182.519 33.2134C181.898 33.3054 181.334 33.3974 180.828 33.4894C180.33 33.5737 179.885 33.6772 179.494 33.7999C179.165 33.9149 178.87 34.0529 178.609 34.2139C178.356 34.3749 178.153 34.5704 177.999 34.8004C177.854 35.0304 177.781 35.3102 177.781 35.6399C177.781 35.9619 177.861 36.2609 178.022 36.5369C178.183 36.8052 178.429 37.0199 178.758 37.1809C179.088 37.3419 179.51 37.4224 180.023 37.4224ZM196.292 39.0439C195.51 39.1972 194.743 39.2624 193.992 39.2394C193.241 39.2164 192.57 39.0707 191.98 38.8024C191.389 38.5341 190.945 38.1124 190.646 37.5374C190.377 37.0237 190.232 36.5024 190.209 35.9734C190.193 35.4367 190.186 34.8311 190.186 34.1564V23.1739H192.601V34.0414C192.601 34.5397 192.604 34.9729 192.612 35.3409C192.627 35.7089 192.708 36.0194 192.854 36.2724C193.13 36.7477 193.567 37.0199 194.165 37.0889C194.77 37.1502 195.479 37.1234 196.292 37.0084V39.0439ZM187.805 28.5559V26.6239H196.292V28.5559H187.805ZM203.662 39.3889C202.389 39.3889 201.308 39.1052 200.419 38.5379C199.53 37.9706 198.847 37.1924 198.372 36.2034C197.904 35.2144 197.667 34.0912 197.659 32.8339C197.667 31.5536 197.912 30.4227 198.395 29.4414C198.878 28.4524 199.568 27.6781 200.465 27.1184C201.362 26.5587 202.439 26.2789 203.697 26.2789C205.054 26.2789 206.211 26.6162 207.17 27.2909C208.136 27.9656 208.772 28.8894 209.079 30.0624L206.687 30.7524C206.449 30.0547 206.058 29.5142 205.514 29.1309C204.977 28.7399 204.36 28.5444 203.662 28.5444C202.872 28.5444 202.225 28.7322 201.719 29.1079C201.213 29.4759 200.837 29.9819 200.592 30.6259C200.346 31.2699 200.22 32.0059 200.212 32.8339C200.22 34.1142 200.511 35.1492 201.086 35.9389C201.669 36.7286 202.527 37.1234 203.662 37.1234C204.436 37.1234 205.061 36.9471 205.537 36.5944C206.02 36.2341 206.388 35.7204 206.641 35.0534L209.079 35.6284C208.672 36.8397 208.001 37.7712 207.066 38.4229C206.131 39.0669 204.996 39.3889 203.662 39.3889ZM220.138 39.0439V32.9374C220.138 32.4544 220.096 31.9599 220.012 31.4539C219.935 30.9402 219.782 30.4649 219.552 30.0279C219.33 29.5909 219.011 29.2382 218.597 28.9699C218.191 28.7016 217.658 28.5674 216.999 28.5674C216.57 28.5674 216.163 28.6402 215.78 28.7859C215.397 28.9239 215.059 29.1501 214.768 29.4644C214.484 29.7787 214.258 30.1927 214.089 30.7064C213.928 31.2201 213.848 31.8449 213.848 32.5809L212.353 32.0174C212.353 30.8904 212.564 29.8976 212.985 29.0389C213.407 28.1726 214.013 27.4979 214.802 27.0149C215.592 26.5319 216.547 26.2904 217.666 26.2904C218.525 26.2904 219.245 26.4284 219.828 26.7044C220.411 26.9804 220.882 27.3446 221.242 27.7969C221.61 28.2416 221.89 28.7284 222.082 29.2574C222.274 29.7864 222.404 30.3039 222.473 30.8099C222.542 31.3159 222.576 31.7606 222.576 32.1439V39.0439H220.138ZM211.41 39.0439V22.4839H213.56V31.4194H213.848V39.0439H211.41Z" fill="black"/>
<rect x="170.192" y="47.2571" width="94.004" height="31.0845" fill="white"/>
<path d="M190.844 65.9214V50.0814H193.143V65.9214H190.844ZM204.124 65.9214C203.376 66.068 202.643 66.1304 201.924 66.1084C201.205 66.0864 200.564 65.947 199.999 65.6904C199.434 65.4337 199.009 65.0304 198.723 64.4804C198.466 63.989 198.327 63.4904 198.305 62.9844C198.29 62.471 198.283 61.8917 198.283 61.2464V50.7414H200.593V61.1364C200.593 61.613 200.597 62.0274 200.604 62.3794C200.619 62.7314 200.696 63.0284 200.835 63.2704C201.099 63.725 201.517 63.9854 202.089 64.0514C202.668 64.11 203.347 64.0844 204.124 63.9744V65.9214ZM196.006 55.8894V54.0414H204.124V55.8894H196.006ZM210.864 66.2514C209.984 66.2514 209.247 66.09 208.653 65.7674C208.059 65.4374 207.608 65.0047 207.3 64.4694C206.999 63.9267 206.849 63.3327 206.849 62.6874C206.849 62.086 206.955 61.558 207.168 61.1034C207.38 60.6487 207.696 60.2637 208.114 59.9484C208.532 59.6257 209.045 59.3654 209.654 59.1674C210.182 59.0134 210.779 58.8777 211.447 58.7604C212.114 58.643 212.814 58.533 213.548 58.4304C214.288 58.3277 215.022 58.225 215.748 58.1224L214.912 58.5844C214.926 57.653 214.728 56.9637 214.318 56.5164C213.914 56.0617 213.218 55.8344 212.228 55.8344C211.604 55.8344 211.032 55.981 210.512 56.2744C209.991 56.5604 209.628 57.037 209.423 57.7044L207.278 57.0444C207.571 56.025 208.128 55.2147 208.95 54.6134C209.778 54.012 210.878 53.7114 212.25 53.7114C213.313 53.7114 214.237 53.8947 215.022 54.2614C215.814 54.6207 216.393 55.1927 216.76 55.9774C216.95 56.366 217.068 56.7767 217.112 57.2094C217.156 57.642 217.178 58.1077 217.178 58.6064V65.9214H215.143V63.2044L215.539 63.5564C215.047 64.4657 214.42 65.144 213.658 65.5914C212.902 66.0314 211.971 66.2514 210.864 66.2514ZM211.271 64.3704C211.923 64.3704 212.484 64.2567 212.954 64.0294C213.423 63.7947 213.801 63.4977 214.087 63.1384C214.373 62.779 214.56 62.405 214.648 62.0164C214.772 61.6644 214.842 61.2684 214.857 60.8284C214.879 60.3884 214.89 60.0364 214.89 59.7724L215.638 60.0474C214.912 60.1574 214.252 60.2564 213.658 60.3444C213.064 60.4324 212.525 60.5204 212.041 60.6084C211.564 60.689 211.139 60.788 210.765 60.9054C210.449 61.0154 210.167 61.1474 209.918 61.3014C209.676 61.4554 209.481 61.6424 209.335 61.8624C209.195 62.0824 209.126 62.35 209.126 62.6654C209.126 62.9734 209.203 63.2594 209.357 63.5234C209.511 63.78 209.745 63.9854 210.061 64.1394C210.376 64.2934 210.779 64.3704 211.271 64.3704ZM221.134 65.9214V49.7514H223.433V65.9214H221.134ZM227.836 52.0944V49.8614H230.135V52.0944H227.836ZM227.836 65.9214V54.0414H230.135V65.9214H227.836ZM237.674 66.2514C236.794 66.2514 236.057 66.09 235.463 65.7674C234.869 65.4374 234.418 65.0047 234.11 64.4694C233.809 63.9267 233.659 63.3327 233.659 62.6874C233.659 62.086 233.765 61.558 233.978 61.1034C234.19 60.6487 234.506 60.2637 234.924 59.9484C235.342 59.6257 235.855 59.3654 236.464 59.1674C236.992 59.0134 237.589 58.8777 238.257 58.7604C238.924 58.643 239.624 58.533 240.358 58.4304C241.098 58.3277 241.832 58.225 242.558 58.1224L241.722 58.5844C241.736 57.653 241.538 56.9637 241.128 56.5164C240.724 56.0617 240.028 55.8344 239.038 55.8344C238.414 55.8344 237.842 55.981 237.322 56.2744C236.801 56.5604 236.438 57.037 236.233 57.7044L234.088 57.0444C234.381 56.025 234.938 55.2147 235.76 54.6134C236.588 54.012 237.688 53.7114 239.06 53.7114C240.123 53.7114 241.047 53.8947 241.832 54.2614C242.624 54.6207 243.203 55.1927 243.57 55.9774C243.76 56.366 243.878 56.7767 243.922 57.2094C243.966 57.642 243.988 58.1077 243.988 58.6064V65.9214H241.953V63.2044L242.349 63.5564C241.857 64.4657 241.23 65.144 240.468 65.5914C239.712 66.0314 238.781 66.2514 237.674 66.2514ZM238.081 64.3704C238.733 64.3704 239.294 64.2567 239.764 64.0294C240.233 63.7947 240.611 63.4977 240.897 63.1384C241.183 62.779 241.37 62.405 241.458 62.0164C241.582 61.6644 241.652 61.2684 241.667 60.8284C241.689 60.3884 241.7 60.0364 241.7 59.7724L242.448 60.0474C241.722 60.1574 241.062 60.2564 240.468 60.3444C239.874 60.4324 239.335 60.5204 238.851 60.6084C238.374 60.689 237.949 60.788 237.575 60.9054C237.259 61.0154 236.977 61.1474 236.728 61.3014C236.486 61.4554 236.291 61.6424 236.145 61.8624C236.005 62.0824 235.936 62.35 235.936 62.6654C235.936 62.9734 236.013 63.2594 236.167 63.5234C236.321 63.78 236.555 63.9854 236.871 64.1394C237.186 64.2934 237.589 64.3704 238.081 64.3704Z" fill="black"/>
<defs>
<radialGradient id="paint0_angular_10_139" cx="0" cy="0" r="1" gradientUnits="userSpaceOnUse" gradientTransform="translate(129.278 30.3377) rotate(90) scale(30.2938 128.618)">
<stop stop-color="#860081"/>
<stop offset="0.953125" stop-color="#006686" stop-opacity="0"/>
</radialGradient>
</defs>
</svg>
