<svg width="355" height="116" viewBox="0 0 355 116" fill="none" xmlns="http://www.w3.org/2000/svg">
<path d="M134.973 54.5C134.926 53.9081 134.704 53.4465 134.307 53.1151C133.917 52.7836 133.322 52.6179 132.523 52.6179C132.014 52.6179 131.596 52.68 131.271 52.8043C130.951 52.9227 130.715 53.0855 130.561 53.2926C130.407 53.4998 130.327 53.7365 130.321 54.0028C130.309 54.2218 130.348 54.4201 130.436 54.5977C130.531 54.7693 130.679 54.9261 130.88 55.0682C131.082 55.2043 131.339 55.3286 131.653 55.4411C131.966 55.5535 132.339 55.6541 132.771 55.7429L134.263 56.0625C135.269 56.2756 136.13 56.5567 136.846 56.9059C137.562 57.2551 138.148 57.6664 138.604 58.1399C139.06 58.6075 139.394 59.1342 139.607 59.7202C139.826 60.3061 139.939 60.9453 139.945 61.6378C139.939 62.8333 139.64 63.8454 139.048 64.674C138.456 65.5026 137.61 66.1329 136.509 66.565C135.414 66.997 134.097 67.2131 132.558 67.2131C130.978 67.2131 129.599 66.9793 128.421 66.5117C127.249 66.0442 126.338 65.325 125.687 64.3544C125.042 63.3778 124.716 62.129 124.71 60.608H129.398C129.427 61.1643 129.566 61.6319 129.815 62.0107C130.064 62.3894 130.413 62.6765 130.863 62.8718C131.318 63.0671 131.86 63.1648 132.487 63.1648C133.014 63.1648 133.455 63.0997 133.81 62.9695C134.165 62.8393 134.434 62.6587 134.618 62.4279C134.801 62.1971 134.896 61.9337 134.902 61.6378C134.896 61.3596 134.804 61.117 134.627 60.9098C134.455 60.6967 134.171 60.5073 133.775 60.3416C133.378 60.17 132.842 60.0102 132.168 59.8622L130.357 59.4716C128.747 59.1224 127.477 58.5394 126.548 57.7227C125.625 56.9 125.166 55.7784 125.172 54.358C125.166 53.2038 125.474 52.1947 126.095 51.3306C126.723 50.4606 127.59 49.7829 128.696 49.2976C129.809 48.8123 131.085 48.5696 132.523 48.5696C133.991 48.5696 135.26 48.8152 136.331 49.3065C137.403 49.7977 138.228 50.4902 138.808 51.3839C139.394 52.2717 139.69 53.3104 139.696 54.5H134.973ZM150.025 53.3636V56.9148H141.041V53.3636H150.025ZM142.781 50.0966H147.682V62.6143C147.682 62.8037 147.714 62.9635 147.779 63.0938C147.844 63.218 147.945 63.3127 148.081 63.3778C148.217 63.437 148.392 63.4666 148.605 63.4666C148.753 63.4666 148.925 63.4489 149.12 63.4134C149.321 63.3778 149.469 63.3482 149.564 63.3246L150.274 66.7692C150.055 66.8343 149.741 66.9142 149.333 67.0089C148.93 67.1036 148.451 67.1657 147.895 67.1953C146.77 67.2545 145.826 67.1391 145.063 66.8491C144.299 66.5531 143.725 66.0885 143.34 65.4553C142.956 64.822 142.769 64.0289 142.781 63.076V50.0966ZM155.825 67.2131C154.955 67.2131 154.185 67.071 153.517 66.7869C152.854 66.4969 152.333 66.0589 151.954 65.473C151.575 64.8871 151.386 64.1413 151.386 63.2358C151.386 62.4901 151.513 61.8538 151.768 61.3271C152.022 60.7944 152.377 60.3594 152.833 60.022C153.289 59.6847 153.818 59.4272 154.422 59.2496C155.032 59.0721 155.689 58.9567 156.393 58.9034C157.157 58.8442 157.769 58.7732 158.231 58.6903C158.698 58.6016 159.036 58.4802 159.243 58.3263C159.45 58.1665 159.554 57.9564 159.554 57.696V57.6605C159.554 57.3054 159.417 57.0331 159.145 56.8438C158.873 56.6544 158.524 56.5597 158.098 56.5597C157.63 56.5597 157.248 56.6632 156.952 56.8704C156.662 57.0716 156.488 57.3823 156.429 57.8026H151.919C151.978 56.974 152.241 56.2105 152.709 55.5121C153.182 54.8078 153.872 54.2455 154.777 53.8253C155.683 53.3991 156.813 53.1861 158.169 53.1861C159.145 53.1861 160.021 53.3015 160.796 53.5323C161.572 53.7572 162.232 54.0739 162.776 54.4822C163.321 54.8847 163.735 55.3582 164.019 55.9027C164.309 56.4413 164.454 57.0272 164.454 57.6605V67H159.873V65.0824H159.767C159.494 65.5914 159.163 66.0027 158.772 66.3164C158.388 66.6301 157.947 66.858 157.449 67C156.958 67.142 156.417 67.2131 155.825 67.2131ZM157.423 64.1236C157.796 64.1236 158.145 64.0466 158.47 63.8928C158.802 63.7389 159.071 63.5169 159.278 63.2269C159.485 62.9369 159.589 62.5848 159.589 62.1705V61.0341C159.459 61.0874 159.32 61.1377 159.172 61.185C159.03 61.2324 158.876 61.2768 158.71 61.3182C158.55 61.3596 158.379 61.3981 158.195 61.4336C158.018 61.4691 157.831 61.5017 157.636 61.5312C157.257 61.5904 156.946 61.6881 156.704 61.8242C156.467 61.9544 156.289 62.1172 156.171 62.3125C156.059 62.5019 156.002 62.715 156.002 62.9517C156.002 63.3305 156.136 63.6205 156.402 63.8217C156.668 64.023 157.009 64.1236 157.423 64.1236ZM166.796 67V53.3636H171.554V55.956H171.696C171.945 54.9972 172.338 54.2958 172.877 53.8519C173.421 53.408 174.058 53.1861 174.786 53.1861C174.999 53.1861 175.209 53.2038 175.416 53.2393C175.629 53.2689 175.833 53.3133 176.029 53.3725V57.554C175.786 57.4711 175.487 57.409 175.132 57.3675C174.777 57.3261 174.472 57.3054 174.218 57.3054C173.738 57.3054 173.306 57.4149 172.921 57.6339C172.543 57.8469 172.244 58.1488 172.025 58.5394C171.806 58.9241 171.696 59.3769 171.696 59.8977V67H166.796ZM186.329 53.3636V56.9148H177.345V53.3636H186.329ZM179.085 50.0966H183.985V62.6143C183.985 62.8037 184.018 62.9635 184.083 63.0938C184.148 63.218 184.249 63.3127 184.385 63.3778C184.521 63.437 184.696 63.4666 184.909 63.4666C185.057 63.4666 185.228 63.4489 185.424 63.4134C185.625 63.3778 185.773 63.3482 185.867 63.3246L186.578 66.7692C186.359 66.8343 186.045 66.9142 185.637 67.0089C185.234 67.1036 184.755 67.1657 184.198 67.1953C183.074 67.2545 182.13 67.1391 181.366 66.8491C180.603 66.5531 180.029 66.0885 179.644 65.4553C179.259 64.822 179.073 64.0289 179.085 63.076V50.0966ZM197.171 61.0341V53.3636H202.072V67H197.42V64.4077H197.278C196.982 65.2777 196.464 65.9583 195.724 66.4496C194.984 66.9349 194.105 67.1776 193.087 67.1776C192.134 67.1776 191.3 66.9586 190.584 66.5206C189.874 66.0826 189.32 65.4789 188.924 64.7095C188.533 63.9401 188.335 63.0582 188.329 62.0639V53.3636H193.229V61.0341C193.235 61.7088 193.407 62.2385 193.744 62.6232C194.088 63.0079 194.567 63.2003 195.183 63.2003C195.591 63.2003 195.943 63.1145 196.239 62.9428C196.541 62.7653 196.772 62.5167 196.931 62.1971C197.097 61.8716 197.177 61.4839 197.171 61.0341ZM204.564 72.1136V53.3636H209.429V55.7429H209.536C209.713 55.2812 209.974 54.8581 210.317 54.4734C210.66 54.0827 211.086 53.772 211.595 53.5412C212.104 53.3045 212.696 53.1861 213.371 53.1861C214.271 53.1861 215.126 53.4258 215.937 53.9052C216.753 54.3846 217.416 55.1392 217.925 56.169C218.44 57.1989 218.698 58.5365 218.698 60.1818C218.698 61.7562 218.452 63.0612 217.961 64.0969C217.476 65.1327 216.824 65.9051 216.008 66.4141C215.197 66.9231 214.306 67.1776 213.335 67.1776C212.696 67.1776 212.125 67.074 211.622 66.8668C211.125 66.6538 210.699 66.3667 210.344 66.0057C209.994 65.6387 209.725 65.2244 209.536 64.7628H209.465V72.1136H204.564ZM209.358 60.1818C209.358 60.8447 209.444 61.4188 209.616 61.9041C209.793 62.3835 210.042 62.7564 210.361 63.0227C210.687 63.2831 211.075 63.4134 211.524 63.4134C211.974 63.4134 212.356 63.2861 212.67 63.0316C212.989 62.7712 213.232 62.4013 213.398 61.9219C213.569 61.4366 213.655 60.8565 213.655 60.1818C213.655 59.5071 213.569 58.93 213.398 58.4506C213.232 57.9653 212.989 57.5954 212.67 57.3409C212.356 57.0805 211.974 56.9503 211.524 56.9503C211.075 56.9503 210.687 57.0805 210.361 57.3409C210.042 57.5954 209.793 57.9653 209.616 58.4506C209.444 58.93 209.358 59.5071 209.358 60.1818ZM233.153 48.8182H238.018V61.2827C238.012 62.4664 237.713 63.508 237.121 64.4077C236.536 65.3014 235.725 65.9998 234.689 66.5028C233.659 67 232.472 67.2486 231.129 67.2486C229.963 67.2486 228.898 67.0473 227.933 66.6449C226.968 66.2365 226.199 65.5973 225.625 64.7273C225.051 63.8513 224.766 62.715 224.772 61.3182H229.708C229.726 61.7739 229.803 62.1586 229.939 62.4723C230.081 62.786 230.277 63.0227 230.525 63.1825C230.78 63.3364 231.087 63.4134 231.449 63.4134C231.815 63.4134 232.123 63.3335 232.372 63.1737C232.626 63.0138 232.819 62.7771 232.949 62.4634C233.079 62.1438 233.147 61.7502 233.153 61.2827V48.8182ZM246.998 67.2486C245.518 67.2486 244.252 66.9556 243.198 66.3697C242.145 65.7778 241.337 64.9551 240.775 63.9016C240.212 62.8422 239.931 61.6141 239.931 60.2173C239.931 58.8205 240.212 57.5954 240.775 56.5419C241.337 55.4825 242.145 54.6598 243.198 54.0739C244.252 53.482 245.518 53.1861 246.998 53.1861C248.478 53.1861 249.744 53.482 250.798 54.0739C251.851 54.6598 252.659 55.4825 253.221 56.5419C253.784 57.5954 254.065 58.8205 254.065 60.2173C254.065 61.6141 253.784 62.8422 253.221 63.9016C252.659 64.9551 251.851 65.7778 250.798 66.3697C249.744 66.9556 248.478 67.2486 246.998 67.2486ZM247.034 63.6264C247.448 63.6264 247.806 63.4873 248.108 63.2092C248.41 62.931 248.643 62.5344 248.809 62.0195C248.975 61.5046 249.058 60.892 249.058 60.1818C249.058 59.4657 248.975 58.8531 248.809 58.3441C248.643 57.8292 248.41 57.4326 248.108 57.1545C247.806 56.8763 247.448 56.7372 247.034 56.7372C246.596 56.7372 246.22 56.8763 245.906 57.1545C245.592 57.4326 245.353 57.8292 245.187 58.3441C245.021 58.8531 244.938 59.4657 244.938 60.1818C244.938 60.892 245.021 61.5046 245.187 62.0195C245.353 62.5344 245.592 62.931 245.906 63.2092C246.22 63.4873 246.596 63.6264 247.034 63.6264ZM255.982 67V48.8182H260.883V55.7429H260.954C261.132 55.2812 261.392 54.8581 261.735 54.4734C262.079 54.0827 262.505 53.772 263.014 53.5412C263.523 53.3045 264.115 53.1861 264.789 53.1861C265.689 53.1861 266.544 53.4258 267.355 53.9052C268.172 54.3846 268.835 55.1392 269.344 56.169C269.858 57.1989 270.116 58.5365 270.116 60.1818C270.116 61.7562 269.87 63.0612 269.379 64.0969C268.894 65.1327 268.243 65.9051 267.426 66.4141C266.615 66.9231 265.724 67.1776 264.754 67.1776C264.115 67.1776 263.543 67.074 263.04 66.8668C262.543 66.6538 262.117 66.3667 261.762 66.0057C261.413 65.6387 261.143 65.2244 260.954 64.7628H260.847V67H255.982ZM260.776 60.1818C260.776 60.8447 260.862 61.4188 261.034 61.9041C261.211 62.3835 261.46 62.7564 261.78 63.0227C262.105 63.2831 262.493 63.4134 262.943 63.4134C263.392 63.4134 263.774 63.2861 264.088 63.0316C264.407 62.7712 264.65 62.4013 264.816 61.9219C264.988 61.4366 265.073 60.8565 265.073 60.1818C265.073 59.5071 264.988 58.93 264.816 58.4506C264.65 57.9653 264.407 57.5954 264.088 57.3409C263.774 57.0805 263.392 56.9503 262.943 56.9503C262.493 56.9503 262.105 57.0805 261.78 57.3409C261.46 57.5954 261.211 57.9653 261.034 58.4506C260.862 58.93 260.776 59.5071 260.776 60.1818ZM284.631 57.8026H280.121C280.098 57.5244 280 57.2847 279.828 57.0835C279.657 56.8822 279.435 56.7283 279.162 56.6218C278.896 56.5094 278.6 56.4531 278.275 56.4531C277.854 56.4531 277.493 56.5301 277.192 56.6839C276.89 56.8378 276.742 57.0568 276.748 57.3409C276.742 57.5421 276.828 57.7286 277.005 57.9002C277.189 58.0719 277.541 58.205 278.062 58.2997L280.831 58.7969C282.228 59.0514 283.267 59.4805 283.948 60.0842C284.634 60.6819 284.98 61.4839 284.986 62.4901C284.98 63.4607 284.69 64.3041 284.116 65.0202C283.548 65.7305 282.77 66.2809 281.781 66.6715C280.799 67.0562 279.677 67.2486 278.417 67.2486C276.333 67.2486 274.703 66.8224 273.525 65.9702C272.353 65.1179 271.699 63.9934 271.563 62.5966H276.428C276.493 63.0286 276.706 63.363 277.067 63.5998C277.434 63.8306 277.896 63.946 278.452 63.946C278.902 63.946 279.272 63.8691 279.562 63.7152C279.858 63.5613 280.009 63.3423 280.015 63.0582C280.009 62.7978 279.879 62.5907 279.624 62.4368C279.376 62.2829 278.985 62.1586 278.452 62.0639L276.037 61.6378C274.647 61.3951 273.605 60.9335 272.912 60.2528C272.22 59.5722 271.877 58.6963 271.883 57.625C271.877 56.678 272.125 55.8761 272.628 55.2191C273.137 54.5562 273.862 54.0531 274.803 53.7099C275.75 53.3607 276.872 53.1861 278.168 53.1861C280.139 53.1861 281.693 53.5945 282.829 54.4112C283.971 55.228 284.572 56.3584 284.631 57.8026ZM296.71 48.8182V67H291.773V48.8182H296.71ZM307.252 53.3636V56.9148H298.268V53.3636H307.252ZM300.008 50.0966H304.908V62.6143C304.908 62.8037 304.941 62.9635 305.006 63.0938C305.071 63.218 305.172 63.3127 305.308 63.3778C305.444 63.437 305.618 63.4666 305.831 63.4666C305.979 63.4666 306.151 63.4489 306.346 63.4134C306.548 63.3778 306.696 63.3482 306.79 63.3246L307.501 66.7692C307.282 66.8343 306.968 66.9142 306.559 67.0089C306.157 67.1036 305.678 67.1657 305.121 67.1953C303.997 67.2545 303.053 67.1391 302.289 66.8491C301.526 66.5531 300.952 66.0885 300.567 65.4553C300.182 64.822 299.996 64.0289 300.008 63.076V50.0966ZM313.051 67.2131C312.181 67.2131 311.412 67.071 310.743 66.7869C310.08 66.4969 309.559 66.0589 309.181 65.473C308.802 64.8871 308.612 64.1413 308.612 63.2358C308.612 62.4901 308.74 61.8538 308.994 61.3271C309.249 60.7944 309.604 60.3594 310.06 60.022C310.515 59.6847 311.045 59.4272 311.649 59.2496C312.258 59.0721 312.915 58.9567 313.62 58.9034C314.383 58.8442 314.996 58.7732 315.457 58.6903C315.925 58.6016 316.262 58.4802 316.469 58.3263C316.677 58.1665 316.78 57.9564 316.78 57.696V57.6605C316.78 57.3054 316.644 57.0331 316.372 56.8438C316.099 56.6544 315.75 56.5597 315.324 56.5597C314.857 56.5597 314.475 56.6632 314.179 56.8704C313.889 57.0716 313.714 57.3823 313.655 57.8026H309.145C309.204 56.974 309.468 56.2105 309.935 55.5121C310.409 54.8078 311.098 54.2455 312.004 53.8253C312.909 53.3991 314.04 53.1861 315.395 53.1861C316.372 53.1861 317.248 53.3015 318.023 53.5323C318.798 53.7572 319.458 54.0739 320.003 54.4822C320.547 54.8847 320.962 55.3582 321.246 55.9027C321.536 56.4413 321.681 57.0272 321.681 57.6605V67H317.1V65.0824H316.993C316.721 65.5914 316.389 66.0027 315.999 66.3164C315.614 66.6301 315.173 66.858 314.676 67C314.185 67.142 313.643 67.2131 313.051 67.2131ZM314.649 64.1236C315.022 64.1236 315.371 64.0466 315.697 63.8928C316.028 63.7389 316.298 63.5169 316.505 63.2269C316.712 62.9369 316.816 62.5848 316.816 62.1705V61.0341C316.685 61.0874 316.546 61.1377 316.398 61.185C316.256 61.2324 316.102 61.2768 315.937 61.3182C315.777 61.3596 315.605 61.3981 315.422 61.4336C315.244 61.4691 315.058 61.5017 314.862 61.5312C314.484 61.5904 314.173 61.6881 313.93 61.8242C313.694 61.9544 313.516 62.1172 313.398 62.3125C313.285 62.5019 313.229 62.715 313.229 62.9517C313.229 63.3305 313.362 63.6205 313.628 63.8217C313.895 64.023 314.235 64.1236 314.649 64.1236ZM328.923 48.8182V67H324.022V48.8182H328.923ZM331.42 67V53.3636H336.32V67H331.42ZM333.87 51.9432C333.207 51.9432 332.639 51.7242 332.165 51.2862C331.692 50.8482 331.455 50.3215 331.455 49.706C331.455 49.0904 331.692 48.5637 332.165 48.1257C332.639 47.6877 333.207 47.4688 333.87 47.4688C334.539 47.4688 335.107 47.6877 335.574 48.1257C336.048 48.5637 336.285 49.0904 336.285 49.706C336.285 50.3215 336.048 50.8482 335.574 51.2862C335.107 51.7242 334.539 51.9432 333.87 51.9432ZM342.617 67.2131C341.747 67.2131 340.977 67.071 340.309 66.7869C339.646 66.4969 339.125 66.0589 338.746 65.473C338.367 64.8871 338.178 64.1413 338.178 63.2358C338.178 62.4901 338.305 61.8538 338.56 61.3271C338.814 60.7944 339.169 60.3594 339.625 60.022C340.081 59.6847 340.61 59.4272 341.214 59.2496C341.824 59.0721 342.481 58.9567 343.185 58.9034C343.949 58.8442 344.561 58.7732 345.023 58.6903C345.49 58.6016 345.828 58.4802 346.035 58.3263C346.242 58.1665 346.346 57.9564 346.346 57.696V57.6605C346.346 57.3054 346.209 57.0331 345.937 56.8438C345.665 56.6544 345.316 56.5597 344.89 56.5597C344.422 56.5597 344.04 56.6632 343.744 56.8704C343.454 57.0716 343.28 57.3823 343.221 57.8026H338.711C338.77 56.974 339.033 56.2105 339.501 55.5121C339.974 54.8078 340.664 54.2455 341.569 53.8253C342.475 53.3991 343.605 53.1861 344.961 53.1861C345.937 53.1861 346.813 53.3015 347.588 53.5323C348.364 53.7572 349.024 54.0739 349.568 54.4822C350.113 54.8847 350.527 55.3582 350.811 55.9027C351.101 56.4413 351.246 57.0272 351.246 57.6605V67H346.665V65.0824H346.559C346.286 65.5914 345.955 66.0027 345.564 66.3164C345.18 66.6301 344.739 66.858 344.241 67C343.75 67.142 343.209 67.2131 342.617 67.2131ZM344.215 64.1236C344.588 64.1236 344.937 64.0466 345.262 63.8928C345.594 63.7389 345.863 63.5169 346.07 63.2269C346.277 62.9369 346.381 62.5848 346.381 62.1705V61.0341C346.251 61.0874 346.112 61.1377 345.964 61.185C345.822 61.2324 345.668 61.2768 345.502 61.3182C345.342 61.3596 345.171 61.3981 344.987 61.4336C344.81 61.4691 344.623 61.5017 344.428 61.5312C344.049 61.5904 343.738 61.6881 343.496 61.8242C343.259 61.9544 343.081 62.1172 342.963 62.3125C342.851 62.5019 342.794 62.715 342.794 62.9517C342.794 63.3305 342.928 63.6205 343.194 63.8217C343.46 64.023 343.801 64.1236 344.215 64.1236Z" fill="black"/>
<path d="M43.6584 53C43.5826 52.053 43.2275 51.3144 42.593 50.7841C41.968 50.2538 41.0163 49.9886 39.7379 49.9886C38.9235 49.9886 38.2559 50.0881 37.7351 50.2869C37.2237 50.4763 36.8449 50.7367 36.5987 51.0682C36.3525 51.3996 36.2247 51.7784 36.2152 52.2045C36.1963 52.5549 36.2578 52.8722 36.3999 53.1562C36.5514 53.4309 36.7881 53.6818 37.1101 53.9091C37.4321 54.1269 37.844 54.3258 38.3459 54.5057C38.8478 54.6856 39.4444 54.8466 40.1357 54.9886L42.522 55.5C44.1319 55.8409 45.5097 56.2907 46.6555 56.8494C47.8014 57.4081 48.7389 58.0663 49.468 58.8239C50.1972 59.572 50.7322 60.4148 51.0732 61.3523C51.4235 62.2898 51.6035 63.3125 51.6129 64.4205C51.6035 66.3333 51.1252 67.9527 50.1783 69.2784C49.2313 70.6042 47.8771 71.6127 46.1158 72.304C44.3639 72.9953 42.2569 73.3409 39.7947 73.3409C37.2663 73.3409 35.0599 72.9669 33.1754 72.2188C31.3004 71.4706 29.8421 70.3201 28.8004 68.767C27.7682 67.2045 27.2474 65.2064 27.2379 62.7727H34.7379C34.7853 63.6629 35.0078 64.411 35.4055 65.017C35.8033 65.6231 36.362 66.0824 37.0817 66.3949C37.8108 66.7074 38.6773 66.8636 39.6811 66.8636C40.5239 66.8636 41.2294 66.7595 41.7976 66.5511C42.3658 66.3428 42.7966 66.054 43.0902 65.6847C43.3838 65.3153 43.5353 64.8939 43.5447 64.4205C43.5353 63.9754 43.3885 63.5871 43.1044 63.2557C42.8298 62.9148 42.3752 62.6117 41.7408 62.3466C41.1063 62.072 40.2493 61.8163 39.1697 61.5795L36.272 60.9545C33.6963 60.3958 31.665 59.4631 30.1783 58.1562C28.701 56.84 27.9671 55.0455 27.9766 52.7727C27.9671 50.9261 28.4595 49.3116 29.4538 47.929C30.4576 46.5369 31.8449 45.4527 33.6158 44.6761C35.3961 43.8996 37.4368 43.5114 39.7379 43.5114C42.0864 43.5114 44.1177 43.9044 45.8317 44.6903C47.5457 45.4763 48.8667 46.5843 49.7947 48.0142C50.7322 49.4347 51.2057 51.0966 51.2152 53H43.6584ZM66.6058 43.9091H74.3899V63.8523C74.3804 65.7462 73.9022 67.4129 72.9553 68.8523C72.0178 70.2822 70.7204 71.3996 69.0632 72.2045C67.4155 73 65.5168 73.3977 63.3672 73.3977C61.5017 73.3977 59.7971 73.0758 58.2536 72.4318C56.71 71.7784 55.4789 70.7557 54.5604 69.3636C53.6418 67.9621 53.1873 66.1439 53.1967 63.9091H61.0945C61.1229 64.6383 61.246 65.2538 61.4638 65.7557C61.6911 66.2576 62.0036 66.6364 62.4013 66.892C62.8085 67.1383 63.3009 67.2614 63.8786 67.2614C64.4657 67.2614 64.9581 67.1335 65.3558 66.8778C65.763 66.6222 66.0708 66.2434 66.2791 65.7415C66.4875 65.2301 66.5964 64.6004 66.6058 63.8523V43.9091ZM86.0305 43.9091V73H78.1328V43.9091H86.0305Z" fill="#001AFF"/>
<path d="M112.891 58.6464V62.554C109.383 62.554 106.924 63.2893 105.517 64.76C104.13 66.2306 103.437 68.6886 103.437 72.1341V82.2184C103.437 85.1176 103.153 87.6282 102.586 89.7501C102.04 91.872 101.137 93.6262 99.876 95.0128C98.6154 96.3994 96.9347 97.4289 94.8338 98.1011C92.7329 98.7734 90.1383 99.1096 87.05 99.1096V92.9329C89.4871 92.9329 91.3989 92.5443 92.7855 91.767C94.1931 91.0106 95.1805 89.8446 95.7477 88.269C96.336 86.6933 96.6301 84.6764 96.6301 82.2184V69.613C96.6301 67.9743 96.8402 66.4827 97.2604 65.1381C97.7016 63.7936 98.4999 62.6381 99.6554 61.6717C100.811 60.7052 102.45 59.9594 104.571 59.4342C106.714 58.909 109.488 58.6464 112.891 58.6464ZM87.05 18.4353C90.1383 18.4353 92.7329 18.7714 94.8338 19.4437C96.9347 20.116 98.6154 21.1454 99.876 22.532C101.137 23.9186 102.04 25.6729 102.586 27.7948C103.153 29.9167 103.437 32.4272 103.437 35.3265V45.4107C103.437 48.8562 104.13 51.3143 105.517 52.7849C106.924 54.2555 109.383 54.9908 112.891 54.9908V58.8985C109.488 58.8985 106.714 58.6359 104.571 58.1106C102.45 57.5854 100.811 56.8396 99.6554 55.8732C98.4999 54.9068 97.7016 53.7513 97.2604 52.4067C96.8402 51.0621 96.6301 49.5705 96.6301 47.9318V35.3265C96.6301 32.8684 96.336 30.8516 95.7477 29.2759C95.1805 27.6792 94.1931 26.5027 92.7855 25.7464C91.3989 24.9901 89.4871 24.6119 87.05 24.6119V18.4353ZM112.891 54.9908V62.554H105.454V54.9908H112.891Z" fill="black"/>
<path d="M0.897069 58.6464V62.554C4.40556 62.554 6.86361 63.2893 8.2712 64.76C9.65779 66.2306 10.3511 68.6886 10.3511 72.1341V82.2184C10.3511 85.1176 10.6347 87.6282 11.2019 89.7501C11.7482 91.872 12.6516 93.6262 13.9121 95.0128C15.1726 96.3994 16.8534 97.4289 18.9542 98.1011C21.0551 98.7734 23.6497 99.1096 26.7381 99.1096V92.9329C24.301 92.9329 22.3892 92.5443 21.0026 91.767C19.595 91.0106 18.6076 89.8446 18.0404 88.269C17.4521 86.6933 17.158 84.6764 17.158 82.2184V69.613C17.158 67.9743 16.9479 66.4827 16.5277 65.1381C16.0865 63.7936 15.2882 62.6381 14.1327 61.6717C12.9772 60.7052 11.3385 59.9594 9.21661 59.4342C7.07369 58.909 4.30052 58.6464 0.897069 58.6464ZM26.7381 18.4353C23.6497 18.4353 21.0551 18.7714 18.9542 19.4437C16.8534 20.116 15.1726 21.1454 13.9121 22.532C12.6516 23.9186 11.7482 25.6729 11.2019 27.7948C10.6347 29.9167 10.3511 32.4272 10.3511 35.3265V45.4107C10.3511 48.8562 9.65779 51.3143 8.2712 52.7849C6.86361 54.2555 4.40556 54.9908 0.897069 54.9908V58.8985C4.30052 58.8985 7.07369 58.6359 9.21661 58.1106C11.3385 57.5854 12.9772 56.8396 14.1327 55.8732C15.2882 54.9068 16.0865 53.7513 16.5277 52.4067C16.9479 51.0621 17.158 49.5705 17.158 47.9318V35.3265C17.158 32.8684 17.4521 30.8516 18.0404 29.2759C18.6076 27.6792 19.595 26.5027 21.0026 25.7464C22.3892 24.9901 24.301 24.6119 26.7381 24.6119V18.4353ZM0.897069 54.9908V62.554H8.33423V54.9908H0.897069Z" fill="black"/>
</svg>
