<svg width="148" height="67" viewBox="0 0 148 67" fill="none" xmlns="http://www.w3.org/2000/svg">
<path d="M24.2336 28.625C24.1923 28.1093 23.9989 27.707 23.6534 27.4181C23.313 27.1293 22.7946 26.9849 22.0983 26.9849C21.6548 26.9849 21.2912 27.039 21.0075 27.1474C20.729 27.2505 20.5227 27.3923 20.3886 27.5729C20.2545 27.7534 20.1849 27.9597 20.1797 28.1918C20.1694 28.3826 20.2029 28.5554 20.2803 28.7101C20.3628 28.8597 20.4917 28.9964 20.6671 29.1201C20.8425 29.2388 21.0668 29.3471 21.3402 29.4451C21.6135 29.5431 21.9384 29.6307 22.315 29.7081L23.6147 29.9866C24.4915 30.1723 25.2419 30.4173 25.866 30.7216C26.49 31.0259 27.0006 31.3843 27.3978 31.7969C27.7949 32.2044 28.0863 32.6634 28.272 33.174C28.4628 33.6846 28.5608 34.2416 28.566 34.8451C28.5608 35.8869 28.3004 36.7689 27.7846 37.4909C27.2688 38.213 26.5313 38.7623 25.572 39.1388C24.6178 39.5153 23.4703 39.7035 22.1293 39.7035C20.7522 39.7035 19.5505 39.4998 18.5241 39.0924C17.5029 38.6849 16.7086 38.0583 16.1413 37.2124C15.5791 36.3614 15.2955 35.2732 15.2903 33.9477H19.3751C19.4009 34.4325 19.5221 34.8399 19.7387 35.17C19.9554 35.5001 20.2596 35.7502 20.6516 35.9204C21.0488 36.0906 21.5207 36.1757 22.0674 36.1757C22.5264 36.1757 22.9107 36.119 23.2201 36.0055C23.5296 35.8921 23.7642 35.7348 23.9241 35.5336C24.084 35.3325 24.1665 35.103 24.1717 34.8451C24.1665 34.6027 24.0866 34.3912 23.9319 34.2107C23.7823 34.025 23.5347 33.86 23.1892 33.7156C22.8436 33.566 22.3768 33.4267 21.7889 33.2978L20.2107 32.9574C18.8078 32.6531 17.7015 32.1451 16.8917 31.4333C16.0871 30.7164 15.6874 29.7391 15.6926 28.5012C15.6874 27.4955 15.9556 26.6161 16.4972 25.8631C17.0439 25.1049 17.7995 24.5144 18.7639 24.0915C19.7336 23.6686 20.845 23.4571 22.0983 23.4571C23.3774 23.4571 24.4837 23.6711 25.4173 24.0992C26.3508 24.5273 27.0703 25.1307 27.5757 25.9095C28.0863 26.6832 28.3442 27.5883 28.3494 28.625H24.2336ZM36.7317 23.6737H40.9713V34.5356C40.9661 35.5671 40.7057 36.4749 40.1899 37.2588C39.6793 38.0376 38.9727 38.6462 38.0701 39.0846C37.1727 39.5179 36.1386 39.7345 34.9678 39.7345C33.9518 39.7345 33.0234 39.5591 32.1827 39.2084C31.342 38.8525 30.6716 38.2955 30.1713 37.5373C29.671 36.774 29.4234 35.7838 29.4286 34.5666H33.73C33.7455 34.9637 33.8125 35.2989 33.9312 35.5723C34.0549 35.8457 34.2251 36.052 34.4418 36.1912C34.6635 36.3253 34.9317 36.3924 35.2464 36.3924C35.5661 36.3924 35.8343 36.3227 36.0509 36.1835C36.2727 36.0442 36.4403 35.8379 36.5538 35.5646C36.6673 35.2861 36.7266 34.9431 36.7317 34.5356V23.6737ZM47.3113 23.6737V39.5179H43.0098V23.6737H47.3113Z" fill="#001AFF"/>
<path d="M61.9406 32.1021V34.2303C60.0298 34.2303 58.691 34.6308 57.9244 35.4318C57.1692 36.2328 56.7916 37.5715 56.7916 39.4481V44.9404C56.7916 46.5194 56.6371 47.8868 56.3282 49.0425C56.0307 50.1982 55.5386 51.1536 54.8521 51.9088C54.1655 52.664 53.2502 53.2247 52.1059 53.5908C50.9617 53.957 49.5486 54.1401 47.8665 54.1401V50.776C49.1938 50.776 50.2351 50.5643 50.9903 50.1409C51.7569 49.729 52.2947 49.094 52.6037 48.2358C52.924 47.3776 53.0842 46.2791 53.0842 44.9404V38.075C53.0842 37.1825 53.1987 36.3701 53.4275 35.6377C53.6678 34.9054 54.1026 34.2761 54.7319 33.7498C55.3613 33.2234 56.2538 32.8172 57.4095 32.5311C58.5766 32.2451 60.087 32.1021 61.9406 32.1021ZM47.8665 10.2014C49.5486 10.2014 50.9617 10.3845 52.1059 10.7506C53.2502 11.1168 54.1655 11.6774 54.8521 12.4326C55.5386 13.1878 56.0307 14.1433 56.3282 15.2989C56.6371 16.4546 56.7916 17.822 56.7916 19.401V24.8934C56.7916 26.7699 57.1692 28.1087 57.9244 28.9096C58.691 29.7106 60.0298 30.1111 61.9406 30.1111V32.2394C60.087 32.2394 58.5766 32.0963 57.4095 31.8103C56.2538 31.5242 55.3613 31.118 54.7319 30.5917C54.1026 30.0653 53.6678 29.436 53.4275 28.7037C53.1987 27.9714 53.0842 27.159 53.0842 26.2665V19.401C53.0842 18.0623 52.924 16.9638 52.6037 16.1056C52.2947 15.236 51.7569 14.5952 50.9903 14.1833C50.2351 13.7714 49.1938 13.5654 47.8665 13.5654V10.2014ZM61.9406 30.1111V34.2303H57.89V30.1111H61.9406Z" fill="black"/>
<path d="M0.94389 32.1021V34.2303C2.85476 34.2303 4.19352 34.6308 4.96016 35.4318C5.71536 36.2328 6.09295 37.5715 6.09295 39.4481V44.9404C6.09295 46.5194 6.24743 47.8868 6.55637 49.0425C6.85387 50.1982 7.34589 51.1536 8.03243 51.9088C8.71898 52.664 9.63437 53.2247 10.7786 53.5908C11.9228 53.957 13.336 54.1401 15.018 54.1401V50.776C13.6907 50.776 12.6494 50.5643 11.8942 50.1409C11.1276 49.729 10.5898 49.094 10.2809 48.2358C9.96047 47.3776 9.80028 46.2791 9.80028 44.9404V38.075C9.80028 37.1825 9.68586 36.3701 9.45701 35.6377C9.21672 34.9054 8.78191 34.2761 8.15258 33.7498C7.52325 33.2234 6.63074 32.8172 5.47507 32.5311C4.30795 32.2451 2.79755 32.1021 0.94389 32.1021ZM15.018 10.2014C13.336 10.2014 11.9228 10.3845 10.7786 10.7506C9.63437 11.1168 8.71898 11.6774 8.03243 12.4326C7.34589 13.1878 6.85387 14.1433 6.55637 15.2989C6.24743 16.4546 6.09295 17.822 6.09295 19.401V24.8934C6.09295 26.7699 5.71536 28.1087 4.96016 28.9096C4.19352 29.7106 2.85476 30.1111 0.94389 30.1111V32.2394C2.79755 32.2394 4.30795 32.0963 5.47507 31.8103C6.63074 31.5242 7.52325 31.118 8.15258 30.5917C8.78191 30.0653 9.21672 29.436 9.45701 28.7037C9.68586 27.9714 9.80028 27.159 9.80028 26.2665V19.401C9.80028 18.0623 9.96047 16.9638 10.2809 16.1056C10.5898 15.236 11.1276 14.5952 11.8942 14.1833C12.6494 13.7714 13.6907 13.5654 15.018 13.5654V10.2014ZM0.94389 30.1111V34.2303H4.99449V30.1111H0.94389Z" fill="black"/>
<path d="M76.5838 13.5C76.5554 13.1449 76.4222 12.8679 76.1843 12.669C75.9499 12.4702 75.593 12.3707 75.1136 12.3707C74.8082 12.3707 74.5579 12.408 74.3626 12.4826C74.1708 12.5536 74.0288 12.6513 73.9364 12.7756C73.8441 12.8999 73.7962 13.0419 73.7926 13.2017C73.7855 13.3331 73.8086 13.4521 73.8619 13.5586C73.9187 13.6616 74.0075 13.7557 74.1282 13.8409C74.2489 13.9226 74.4034 13.9972 74.5916 14.0646C74.7798 14.1321 75.0036 14.1925 75.2628 14.2457L76.1577 14.4375C76.7614 14.5653 77.2781 14.734 77.7077 14.9435C78.1374 15.1531 78.489 15.3999 78.7624 15.6839C79.0359 15.9645 79.2365 16.2805 79.3643 16.6321C79.4957 16.9837 79.5632 17.3672 79.5668 17.7827C79.5632 18.5 79.3839 19.1072 79.0288 19.6044C78.6737 20.1016 78.1658 20.4798 77.5053 20.739C76.8484 20.9982 76.0582 21.1278 75.1349 21.1278C74.1868 21.1278 73.3594 20.9876 72.6527 20.707C71.9496 20.4265 71.4027 19.995 71.0121 19.4126C70.625 18.8267 70.4297 18.0774 70.4261 17.1648H73.2386C73.2564 17.4986 73.3398 17.7791 73.489 18.0064C73.6381 18.2337 73.8477 18.4059 74.1175 18.5231C74.391 18.6403 74.7159 18.6989 75.0923 18.6989C75.4084 18.6989 75.6729 18.6598 75.886 18.5817C76.0991 18.5036 76.2607 18.3952 76.3707 18.2567C76.4808 18.1183 76.5376 17.9602 76.5412 17.7827C76.5376 17.6158 76.4826 17.4702 76.3761 17.3459C76.2731 17.218 76.1026 17.1044 75.8647 17.005C75.6268 16.902 75.3054 16.8061 74.9006 16.7173L73.8139 16.483C72.848 16.2734 72.0863 15.9237 71.5288 15.4336C70.9748 14.94 70.6996 14.267 70.7031 13.4148C70.6996 12.7223 70.8842 12.1168 71.2571 11.5984C71.6335 11.0763 72.1538 10.6697 72.8178 10.3786C73.4854 10.0874 74.2507 9.94176 75.1136 9.94176C75.9943 9.94176 76.756 10.0891 77.3988 10.3839C78.0415 10.6786 78.5369 11.0941 78.8849 11.6303C79.2365 12.163 79.4141 12.7862 79.4176 13.5H76.5838ZM85.6152 12.8182V14.9489H80.2246V12.8182H85.6152ZM81.2686 10.858H84.209V18.3686C84.209 18.4822 84.2285 18.5781 84.2676 18.6562C84.3066 18.7308 84.367 18.7876 84.4487 18.8267C84.5304 18.8622 84.6351 18.88 84.763 18.88C84.8517 18.88 84.9547 18.8693 85.0719 18.848C85.1926 18.8267 85.2814 18.8089 85.3382 18.7947L85.7644 20.8615C85.633 20.9006 85.4448 20.9485 85.1998 21.0053C84.9583 21.0621 84.6706 21.0994 84.3368 21.1172C83.6621 21.1527 83.0957 21.0835 82.6376 20.9094C82.1795 20.7319 81.835 20.4531 81.6042 20.0732C81.3734 19.6932 81.2615 19.2173 81.2686 18.6456V10.858ZM89.0949 21.1278C88.5729 21.1278 88.1112 21.0426 87.71 20.8722C87.3122 20.6982 86.9997 20.4354 86.7725 20.0838C86.5452 19.7322 86.4316 19.2848 86.4316 18.7415C86.4316 18.294 86.5079 17.9123 86.6606 17.5962C86.8133 17.2766 87.0264 17.0156 87.2998 16.8132C87.5732 16.6108 87.8911 16.4563 88.2533 16.3498C88.6191 16.2433 89.0132 16.174 89.4358 16.142C89.8939 16.1065 90.2615 16.0639 90.5384 16.0142C90.819 15.9609 91.0214 15.8881 91.1457 15.7958C91.27 15.6999 91.3321 15.5739 91.3321 15.4176V15.3963C91.3321 15.1832 91.2504 15.0199 91.0871 14.9062C90.9237 14.7926 90.7142 14.7358 90.4585 14.7358C90.178 14.7358 89.949 14.7979 89.7714 14.9222C89.5974 15.043 89.4926 15.2294 89.4571 15.4815H86.7512C86.7867 14.9844 86.9447 14.5263 87.2252 14.1072C87.5093 13.6847 87.923 13.3473 88.4664 13.0952C89.0097 12.8395 89.6879 12.7116 90.5012 12.7116C91.0871 12.7116 91.6127 12.7809 92.0779 12.9194C92.5431 13.0543 92.939 13.2443 93.2657 13.4893C93.5924 13.7308 93.841 14.0149 94.0115 14.3416C94.1855 14.6648 94.2725 15.0163 94.2725 15.3963V21H91.5239V19.8494H91.46C91.2966 20.1548 91.0977 20.4016 90.8634 20.5898C90.6325 20.7781 90.368 20.9148 90.0697 21C89.7749 21.0852 89.45 21.1278 89.0949 21.1278ZM90.0537 19.2741C90.2774 19.2741 90.4869 19.228 90.6823 19.1357C90.8811 19.0433 91.0427 18.9102 91.167 18.7362C91.2913 18.5621 91.3534 18.3509 91.3534 18.1023V17.4205C91.2753 17.4524 91.1919 17.4826 91.1031 17.511C91.0178 17.5394 90.9255 17.5661 90.8261 17.5909C90.7302 17.6158 90.6272 17.6388 90.5171 17.6602C90.4106 17.6815 90.2987 17.701 90.1816 17.7188C89.9543 17.7543 89.7678 17.8129 89.6222 17.8945C89.4802 17.9727 89.3737 18.0703 89.3026 18.1875C89.2352 18.3011 89.2014 18.429 89.2014 18.571C89.2014 18.7983 89.2813 18.9723 89.4411 19.093C89.6009 19.2138 89.8051 19.2741 90.0537 19.2741ZM95.6774 21V12.8182H98.5325V14.3736H98.6177C98.7669 13.7983 99.003 13.3775 99.3262 13.1112C99.6529 12.8448 100.035 12.7116 100.471 12.7116C100.599 12.7116 100.725 12.7223 100.85 12.7436C100.977 12.7614 101.1 12.788 101.217 12.8235V15.3324C101.072 15.2827 100.892 15.2454 100.679 15.2205C100.466 15.1957 100.283 15.1832 100.131 15.1832C99.8429 15.1832 99.5836 15.2489 99.3528 15.3803C99.1255 15.5082 98.9462 15.6893 98.8148 15.9237C98.6834 16.1545 98.6177 16.4261 98.6177 16.7386V21H95.6774ZM107.397 12.8182V14.9489H102.007V12.8182H107.397ZM103.051 10.858H105.991V18.3686C105.991 18.4822 106.011 18.5781 106.05 18.6562C106.089 18.7308 106.149 18.7876 106.231 18.8267C106.313 18.8622 106.417 18.88 106.545 18.88C106.634 18.88 106.737 18.8693 106.854 18.848C106.975 18.8267 107.064 18.8089 107.12 18.7947L107.547 20.8615C107.415 20.9006 107.227 20.9485 106.982 21.0053C106.741 21.0621 106.453 21.0994 106.119 21.1172C105.444 21.1527 104.878 21.0835 104.42 20.9094C103.962 20.7319 103.617 20.4531 103.386 20.0732C103.156 19.6932 103.044 19.2173 103.051 18.6456V10.858ZM113.903 17.4205V12.8182H116.843V21H114.052V19.4446H113.967C113.789 19.9666 113.478 20.375 113.034 20.6697C112.591 20.9609 112.063 21.1065 111.452 21.1065C110.881 21.1065 110.38 20.9751 109.95 20.7124C109.524 20.4496 109.192 20.0874 108.954 19.6257C108.72 19.1641 108.601 18.6349 108.597 18.0384V12.8182H111.538V17.4205C111.541 17.8253 111.644 18.1431 111.847 18.3739C112.053 18.6048 112.34 18.7202 112.71 18.7202C112.955 18.7202 113.166 18.6687 113.343 18.5657C113.525 18.4592 113.663 18.31 113.759 18.1183C113.858 17.9229 113.906 17.6903 113.903 17.4205ZM118.339 24.0682V12.8182H121.258V14.2457H121.321C121.428 13.9687 121.584 13.7148 121.79 13.484C121.996 13.2496 122.252 13.0632 122.557 12.9247C122.863 12.7827 123.218 12.7116 123.623 12.7116C124.162 12.7116 124.676 12.8555 125.162 13.1431C125.652 13.4308 126.05 13.8835 126.355 14.5014C126.664 15.1193 126.819 15.9219 126.819 16.9091C126.819 17.8537 126.671 18.6367 126.377 19.2582C126.085 19.8796 125.695 20.343 125.205 20.6484C124.718 20.9538 124.184 21.1065 123.601 21.1065C123.218 21.1065 122.875 21.0444 122.573 20.9201C122.275 20.7923 122.019 20.62 121.806 20.4034C121.597 20.1832 121.435 19.9347 121.321 19.6577H121.279V24.0682H118.339ZM121.215 16.9091C121.215 17.3068 121.266 17.6513 121.369 17.9425C121.476 18.2301 121.625 18.4538 121.817 18.6136C122.012 18.7699 122.245 18.848 122.515 18.848C122.785 18.848 123.014 18.7717 123.202 18.619C123.394 18.4627 123.539 18.2408 123.639 17.9531C123.742 17.6619 123.793 17.3139 123.793 16.9091C123.793 16.5043 123.742 16.158 123.639 15.8704C123.539 15.5792 123.394 15.3572 123.202 15.2045C123.014 15.0483 122.785 14.9702 122.515 14.9702C122.245 14.9702 122.012 15.0483 121.817 15.2045C121.625 15.3572 121.476 15.5792 121.369 15.8704C121.266 16.158 121.215 16.5043 121.215 16.9091ZM75.1989 28.0909H78.1179V35.5696C78.1143 36.2798 77.935 36.9048 77.5799 37.4446C77.2283 37.9808 76.7418 38.3999 76.1204 38.7017C75.5025 39 74.7905 39.1491 73.9844 39.1491C73.2848 39.1491 72.6456 39.0284 72.0668 38.7869C71.4879 38.5419 71.0263 38.1584 70.6818 37.6364C70.3374 37.1108 70.1669 36.429 70.1705 35.5909H73.1321C73.1428 35.8643 73.1889 36.0952 73.2706 36.2834C73.3558 36.4716 73.473 36.6136 73.6222 36.7095C73.7749 36.8018 73.9595 36.848 74.1761 36.848C74.3963 36.848 74.581 36.8001 74.7301 36.7042C74.8828 36.6083 74.9982 36.4663 75.0763 36.2781C75.1545 36.0863 75.1953 35.8501 75.1989 35.5696V28.0909ZM83.5059 39.1491C82.6181 39.1491 81.8581 38.9734 81.226 38.6218C80.5939 38.2667 80.1092 37.7731 79.7718 37.141C79.4345 36.5053 79.2658 35.7685 79.2658 34.9304C79.2658 34.0923 79.4345 33.3572 79.7718 32.7251C80.1092 32.0895 80.5939 31.5959 81.226 31.2443C81.8581 30.8892 82.6181 30.7116 83.5059 30.7116C84.3936 30.7116 85.1536 30.8892 85.7857 31.2443C86.4178 31.5959 86.9025 32.0895 87.2399 32.7251C87.5772 33.3572 87.7459 34.0923 87.7459 34.9304C87.7459 35.7685 87.5772 36.5053 87.2399 37.141C86.9025 37.7731 86.4178 38.2667 85.7857 38.6218C85.1536 38.9734 84.3936 39.1491 83.5059 39.1491ZM83.5272 36.9759C83.7757 36.9759 83.9906 36.8924 84.1717 36.7255C84.3528 36.5586 84.4931 36.3207 84.5925 36.0117C84.6919 35.7028 84.7417 35.3352 84.7417 34.9091C84.7417 34.4794 84.6919 34.1119 84.5925 33.8065C84.4931 33.4975 84.3528 33.2596 84.1717 33.0927C83.9906 32.9258 83.7757 32.8423 83.5272 32.8423C83.2644 32.8423 83.0389 32.9258 82.8507 33.0927C82.6625 33.2596 82.5186 33.4975 82.4192 33.8065C82.3198 34.1119 82.2701 34.4794 82.2701 34.9091C82.2701 35.3352 82.3198 35.7028 82.4192 36.0117C82.5186 36.3207 82.6625 36.5586 82.8507 36.7255C83.0389 36.8924 83.2644 36.9759 83.5272 36.9759ZM88.8965 39V28.0909H91.8368V32.2457H91.8794C91.986 31.9687 92.1422 31.7148 92.3482 31.484C92.5542 31.2496 92.8098 31.0632 93.1152 30.9247C93.4206 30.7827 93.7757 30.7116 94.1806 30.7116C94.7203 30.7116 95.2335 30.8555 95.72 31.1431C96.21 31.4308 96.6078 31.8835 96.9132 32.5014C97.2221 33.1193 97.3766 33.9219 97.3766 34.9091C97.3766 35.8537 97.2292 36.6367 96.9345 37.2582C96.6433 37.8796 96.2527 38.343 95.7626 38.6484C95.2761 38.9538 94.7417 39.1065 94.1593 39.1065C93.7757 39.1065 93.4331 39.0444 93.1312 38.9201C92.8329 38.7923 92.5772 38.62 92.3642 38.4034C92.1547 38.1832 91.9931 37.9347 91.8794 37.6577H91.8155V39H88.8965ZM91.7729 34.9091C91.7729 35.3068 91.8244 35.6513 91.9274 35.9425C92.0339 36.2301 92.1831 36.4538 92.3748 36.6136C92.5701 36.7699 92.8027 36.848 93.0726 36.848C93.3425 36.848 93.5716 36.7717 93.7598 36.619C93.9515 36.4627 94.0971 36.2408 94.1966 35.9531C94.2995 35.6619 94.351 35.3139 94.351 34.9091C94.351 34.5043 94.2995 34.158 94.1966 33.8704C94.0971 33.5792 93.9515 33.3572 93.7598 33.2045C93.5716 33.0483 93.3425 32.9702 93.0726 32.9702C92.8027 32.9702 92.5701 33.0483 92.3748 33.2045C92.1831 33.3572 92.0339 33.5792 91.9274 33.8704C91.8244 34.158 91.7729 34.5043 91.7729 34.9091ZM106.086 33.4815H103.38C103.366 33.3146 103.307 33.1708 103.204 33.0501C103.101 32.9293 102.968 32.837 102.805 32.7731C102.645 32.7056 102.467 32.6719 102.272 32.6719C102.02 32.6719 101.803 32.718 101.622 32.8104C101.441 32.9027 101.352 33.0341 101.356 33.2045C101.352 33.3253 101.404 33.4371 101.51 33.5401C101.62 33.6431 101.831 33.723 102.144 33.7798L103.806 34.0781C104.644 34.2308 105.267 34.4883 105.676 34.8505C106.088 35.2092 106.295 35.6903 106.299 36.294C106.295 36.8764 106.121 37.3825 105.777 37.8121C105.436 38.2383 104.969 38.5685 104.376 38.8029C103.786 39.0337 103.113 39.1491 102.357 39.1491C101.107 39.1491 100.129 38.8935 99.4221 38.3821C98.7189 37.8707 98.3265 37.196 98.2449 36.358H101.164C101.203 36.6172 101.331 36.8178 101.547 36.9599C101.768 37.0984 102.045 37.1676 102.378 37.1676C102.648 37.1676 102.87 37.1214 103.044 37.0291C103.222 36.9368 103.312 36.8054 103.316 36.6349C103.312 36.4787 103.234 36.3544 103.081 36.2621C102.932 36.1697 102.698 36.0952 102.378 36.0384L100.93 35.7827C100.095 35.6371 99.47 35.3601 99.0545 34.9517C98.639 34.5433 98.4331 34.0178 98.4366 33.375C98.4331 32.8068 98.5822 32.3256 98.8841 31.9315C99.1895 31.5337 99.6245 31.2319 100.189 31.0259C100.757 30.8164 101.43 30.7116 102.208 30.7116C103.39 30.7116 104.323 30.9567 105.004 31.4467C105.69 31.9368 106.05 32.6151 106.086 33.4815ZM73.6648 46.0909V57H70.7031V46.0909H73.6648ZM79.9902 48.8182V50.9489H74.5996V48.8182H79.9902ZM75.6436 46.858H78.584V54.3686C78.584 54.4822 78.6035 54.5781 78.6426 54.6562C78.6816 54.7308 78.742 54.7876 78.8237 54.8267C78.9054 54.8622 79.0101 54.88 79.138 54.88C79.2267 54.88 79.3297 54.8693 79.4469 54.848C79.5676 54.8267 79.6564 54.8089 79.7132 54.7947L80.1394 56.8615C80.008 56.9006 79.8198 56.9485 79.5748 57.0053C79.3333 57.0621 79.0456 57.0994 78.7118 57.1172C78.0371 57.1527 77.4707 57.0835 77.0126 56.9094C76.5545 56.7319 76.21 56.4531 75.9792 56.0732C75.7484 55.6932 75.6365 55.2173 75.6436 54.6456V46.858ZM83.4699 57.1278C82.9479 57.1278 82.4862 57.0426 82.085 56.8722C81.6872 56.6982 81.3747 56.4354 81.1475 56.0838C80.9202 55.7322 80.8066 55.2848 80.8066 54.7415C80.8066 54.294 80.8829 53.9123 81.0356 53.5962C81.1883 53.2766 81.4014 53.0156 81.6748 52.8132C81.9482 52.6108 82.2661 52.4563 82.6283 52.3498C82.9941 52.2433 83.3882 52.174 83.8108 52.142C84.2689 52.1065 84.6365 52.0639 84.9134 52.0142C85.194 51.9609 85.3964 51.8881 85.5207 51.7958C85.645 51.6999 85.7071 51.5739 85.7071 51.4176V51.3963C85.7071 51.1832 85.6254 51.0199 85.4621 50.9062C85.2987 50.7926 85.0892 50.7358 84.8335 50.7358C84.553 50.7358 84.324 50.7979 84.1464 50.9222C83.9724 51.043 83.8676 51.2294 83.8321 51.4815H81.1262C81.1617 50.9844 81.3197 50.5263 81.6002 50.1072C81.8843 49.6847 82.298 49.3473 82.8414 49.0952C83.3847 48.8395 84.0629 48.7116 84.8762 48.7116C85.4621 48.7116 85.9877 48.7809 86.4529 48.9194C86.9181 49.0543 87.314 49.2443 87.6407 49.4893C87.9674 49.7308 88.216 50.0149 88.3865 50.3416C88.5605 50.6648 88.6475 51.0163 88.6475 51.3963V57H85.8989V55.8494H85.835C85.6716 56.1548 85.4727 56.4016 85.2384 56.5898C85.0075 56.7781 84.743 56.9148 84.4447 57C84.1499 57.0852 83.825 57.1278 83.4699 57.1278ZM84.4287 55.2741C84.6524 55.2741 84.8619 55.228 85.0573 55.1357C85.2561 55.0433 85.4177 54.9102 85.542 54.7362C85.6663 54.5621 85.7284 54.3509 85.7284 54.1023V53.4205C85.6503 53.4524 85.5669 53.4826 85.4781 53.511C85.3928 53.5394 85.3005 53.5661 85.2011 53.5909C85.1052 53.6158 85.0022 53.6388 84.8921 53.6602C84.7856 53.6815 84.6737 53.701 84.5566 53.7188C84.3293 53.7543 84.1428 53.8129 83.9972 53.8945C83.8552 53.9727 83.7487 54.0703 83.6776 54.1875C83.6102 54.3011 83.5764 54.429 83.5764 54.571C83.5764 54.7983 83.6563 54.9723 83.8161 55.093C83.9759 55.2138 84.1801 55.2741 84.4287 55.2741ZM92.9927 46.0909V57H90.0524V46.0909H92.9927ZM94.4909 57V48.8182H97.4312V57H94.4909ZM95.961 47.9659C95.5633 47.9659 95.2224 47.8345 94.9383 47.5717C94.6542 47.3089 94.5122 46.9929 94.5122 46.6236C94.5122 46.2543 94.6542 45.9382 94.9383 45.6754C95.2224 45.4126 95.5633 45.2812 95.961 45.2812C96.3623 45.2812 96.7032 45.4126 96.9838 45.6754C97.2678 45.9382 97.4099 46.2543 97.4099 46.6236C97.4099 46.9929 97.2678 47.3089 96.9838 47.5717C96.7032 47.8345 96.3623 47.9659 95.961 47.9659ZM101.209 57.1278C100.687 57.1278 100.225 57.0426 99.8242 56.8722C99.4265 56.6982 99.114 56.4354 98.8867 56.0838C98.6594 55.7322 98.5458 55.2848 98.5458 54.7415C98.5458 54.294 98.6222 53.9123 98.7749 53.5962C98.9276 53.2766 99.1406 53.0156 99.4141 52.8132C99.6875 52.6108 100.005 52.4563 100.368 52.3498C100.733 52.2433 101.127 52.174 101.55 52.142C102.008 52.1065 102.376 52.0639 102.653 52.0142C102.933 51.9609 103.136 51.8881 103.26 51.7958C103.384 51.6999 103.446 51.5739 103.446 51.4176V51.3963C103.446 51.1832 103.365 51.0199 103.201 50.9062C103.038 50.7926 102.828 50.7358 102.573 50.7358C102.292 50.7358 102.063 50.7979 101.886 50.9222C101.712 51.043 101.607 51.2294 101.571 51.4815H98.8654C98.9009 50.9844 99.0589 50.5263 99.3395 50.1072C99.6236 49.6847 100.037 49.3473 100.581 49.0952C101.124 48.8395 101.802 48.7116 102.615 48.7116C103.201 48.7116 103.727 48.7809 104.192 48.9194C104.657 49.0543 105.053 49.2443 105.38 49.4893C105.707 49.7308 105.955 50.0149 106.126 50.3416C106.3 50.6648 106.387 51.0163 106.387 51.3963V57H103.638V55.8494H103.574C103.411 56.1548 103.212 56.4016 102.978 56.5898C102.747 56.7781 102.482 56.9148 102.184 57C101.889 57.0852 101.564 57.1278 101.209 57.1278ZM102.168 55.2741C102.392 55.2741 102.601 55.228 102.797 55.1357C102.995 55.0433 103.157 54.9102 103.281 54.7362C103.406 54.5621 103.468 54.3509 103.468 54.1023V53.4205C103.39 53.4524 103.306 53.4826 103.217 53.511C103.132 53.5394 103.04 53.5661 102.94 53.5909C102.844 53.6158 102.741 53.6388 102.631 53.6602C102.525 53.6815 102.413 53.701 102.296 53.7188C102.069 53.7543 101.882 53.8129 101.737 53.8945C101.594 53.9727 101.488 54.0703 101.417 54.1875C101.349 54.3011 101.316 54.429 101.316 54.571C101.316 54.7983 101.396 54.9723 101.555 55.093C101.715 55.2138 101.919 55.2741 102.168 55.2741Z" fill="black"/>
</svg>
