<svg width="27" height="25" viewBox="0 0 27 25" fill="none" xmlns="http://www.w3.org/2000/svg">
<path d="M10.9718 0.725708C5.05037 0.725708 0.227051 5.15753 0.227051 10.5983C0.227051 16.0392 5.05037 20.471 10.9718 20.471C13.5468 20.471 15.9116 19.6308 17.7649 18.2361L24.1803 24.1308C24.2793 24.2255 24.3979 24.3012 24.5291 24.3533C24.6603 24.4054 24.8016 24.433 24.9445 24.4343C25.0875 24.4356 25.2293 24.4107 25.3616 24.3611C25.494 24.3114 25.6142 24.238 25.7153 24.1452C25.8164 24.0523 25.8963 23.9418 25.9503 23.8202C26.0043 23.6986 26.0314 23.5683 26.03 23.4369C26.0285 23.3056 25.9986 23.1758 25.9418 23.0553C25.8851 22.9347 25.8028 22.8257 25.6997 22.7347L19.2843 16.8401C20.8022 15.1372 21.7166 12.9643 21.7166 10.5983C21.7166 5.15753 16.8932 0.725708 10.9718 0.725708ZM10.9718 2.70024C15.7319 2.70024 19.5676 6.22465 19.5676 10.5983C19.5676 14.972 15.7319 18.4965 10.9718 18.4965C6.21175 18.4965 2.376 14.972 2.376 10.5983C2.376 6.22465 6.21175 2.70024 10.9718 2.70024Z" fill="#989898"/>
</svg>
