<svg width="18" height="21" viewBox="0 0 18 21" fill="none" xmlns="http://www.w3.org/2000/svg">
<path d="M1 13V19.5H17V13" stroke="#3900B1" stroke-width="2" stroke-linecap="round" stroke-linejoin="round"/>
<path d="M8 15C8 15.5523 8.44772 16 9 16C9.55228 16 10 15.5523 10 15H8ZM9.70711 0.292893C9.31658 -0.0976315 8.68342 -0.0976315 8.29289 0.292893L1.92893 6.65685C1.53841 7.04738 1.53841 7.68054 1.92893 8.07107C2.31946 8.46159 2.95262 8.46159 3.34315 8.07107L9 2.41421L14.6569 8.07107C15.0474 8.46159 15.6805 8.46159 16.0711 8.07107C16.4616 7.68054 16.4616 7.04738 16.0711 6.65685L9.70711 0.292893ZM10 15V1H8V15H10Z" fill="#3900B1"/>
</svg>
