<svg width="140" height="74" viewBox="0 0 140 74" fill="none" xmlns="http://www.w3.org/2000/svg">
<path d="M5.59656 47.225C4.51656 47.225 3.59656 46.99 2.83656 46.52C2.07656 46.045 1.49406 45.385 1.08906 44.54C0.689063 43.695 0.489063 42.715 0.489063 41.6C0.489063 40.485 0.689063 39.505 1.08906 38.66C1.49406 37.815 2.07656 37.1575 2.83656 36.6875C3.59656 36.2125 4.51656 35.975 5.59656 35.975C6.84156 35.975 7.87156 36.29 8.68656 36.92C9.50656 37.55 10.0766 38.3975 10.3966 39.4625L8.80656 39.89C8.59656 39.135 8.22156 38.5425 7.68156 38.1125C7.14656 37.6825 6.45156 37.4675 5.59656 37.4675C4.83156 37.4675 4.19406 37.64 3.68406 37.985C3.17406 38.33 2.78906 38.8125 2.52906 39.4325C2.27406 40.0525 2.14656 40.775 2.14656 41.6C2.14156 42.425 2.26656 43.1475 2.52156 43.7675C2.78156 44.3875 3.16656 44.87 3.67656 45.215C4.19156 45.56 4.83156 45.7325 5.59656 45.7325C6.45156 45.7325 7.14656 45.5175 7.68156 45.0875C8.22156 44.6525 8.59656 44.06 8.80656 43.31L10.3966 43.7375C10.0766 44.8025 9.50656 45.65 8.68656 46.28C7.87156 46.91 6.84156 47.225 5.59656 47.225ZM12.1961 47V35.975H13.7636V47H12.1961ZM16.1658 37.5725V36.05H17.7333V37.5725H16.1658ZM16.1658 47V38.9H17.7333V47H16.1658ZM23.4505 47.225C22.6205 47.225 21.9155 47.04 21.3355 46.67C20.7555 46.3 20.3105 45.7925 20.0005 45.1475C19.6955 44.5025 19.5405 43.77 19.5355 42.95C19.5405 42.115 19.7005 41.3775 20.0155 40.7375C20.3305 40.0925 20.7805 39.5875 21.3655 39.2225C21.9505 38.8575 22.653 38.675 23.473 38.675C24.358 38.675 25.113 38.895 25.738 39.335C26.368 39.775 26.783 40.3775 26.983 41.1425L25.423 41.5925C25.268 41.1375 25.013 40.785 24.658 40.535C24.308 40.28 23.9055 40.1525 23.4505 40.1525C22.9355 40.1525 22.513 40.275 22.183 40.52C21.853 40.76 21.608 41.09 21.448 41.51C21.288 41.93 21.2055 42.41 21.2005 42.95C21.2055 43.785 21.3955 44.46 21.7705 44.975C22.1505 45.49 22.7105 45.7475 23.4505 45.7475C23.9555 45.7475 24.363 45.6325 24.673 45.4025C24.988 45.1675 25.228 44.8325 25.393 44.3975L26.983 44.7725C26.718 45.5625 26.2805 46.17 25.6705 46.595C25.0605 47.015 24.3205 47.225 23.4505 47.225ZM28.5034 47L28.5109 36.2H30.1009V42.8L33.2809 38.9H35.2759L31.9159 42.95L35.6209 47H33.4909L30.1009 43.1V47H28.5034ZM44.0151 47C43.5051 47.1 43.0051 47.1425 42.5151 47.1275C42.0251 47.1125 41.5876 47.0175 41.2026 46.8425C40.8176 46.6675 40.5276 46.3925 40.3326 46.0175C40.1576 45.6825 40.0626 45.3425 40.0476 44.9975C40.0376 44.6475 40.0326 44.2525 40.0326 43.8125V36.65H41.6076V43.7375C41.6076 44.0625 41.6101 44.345 41.6151 44.585C41.6251 44.825 41.6776 45.0275 41.7726 45.1925C41.9526 45.5025 42.2376 45.68 42.6276 45.725C43.0226 45.765 43.4851 45.7475 44.0151 45.6725V47ZM38.4801 40.16V38.9H44.0151V40.16H38.4801ZM48.8741 47.225C48.0641 47.225 47.3616 47.0425 46.7666 46.6775C46.1716 46.3125 45.7116 45.81 45.3866 45.17C45.0666 44.525 44.9066 43.7825 44.9066 42.9425C44.9066 42.0975 45.0716 41.355 45.4016 40.715C45.7316 40.07 46.1941 39.57 46.7891 39.215C47.3841 38.855 48.0791 38.675 48.8741 38.675C49.6841 38.675 50.3866 38.8575 50.9816 39.2225C51.5766 39.5875 52.0366 40.09 52.3616 40.73C52.6866 41.37 52.8491 42.1075 52.8491 42.9425C52.8491 43.7875 52.6841 44.5325 52.3541 45.1775C52.0291 45.8175 51.5691 46.32 50.9741 46.685C50.3791 47.045 49.6791 47.225 48.8741 47.225ZM48.8741 45.7475C49.6491 45.7475 50.2266 45.4875 50.6066 44.9675C50.9916 44.4425 51.1841 43.7675 51.1841 42.9425C51.1841 42.0975 50.9891 41.4225 50.5991 40.9175C50.2141 40.4075 49.6391 40.1525 48.8741 40.1525C48.3491 40.1525 47.9166 40.2725 47.5766 40.5125C47.2366 40.7475 46.9841 41.075 46.8191 41.495C46.6541 41.91 46.5716 42.3925 46.5716 42.9425C46.5716 43.7925 46.7666 44.4725 47.1566 44.9825C47.5466 45.4925 48.1191 45.7475 48.8741 45.7475ZM60.5527 47.2175C59.9927 47.2175 59.5227 47.1275 59.1427 46.9475C58.7627 46.7675 58.4527 46.5325 58.2127 46.2425C57.9777 45.9475 57.7977 45.6275 57.6727 45.2825C57.5477 44.9375 57.4627 44.6 57.4177 44.27C57.3727 43.94 57.3502 43.65 57.3502 43.4V38.9H58.9402V42.8825C58.9402 43.1975 58.9652 43.5225 59.0152 43.8575C59.0702 44.1875 59.1702 44.495 59.3152 44.78C59.4652 45.065 59.6727 45.295 59.9377 45.47C60.2077 45.645 60.5577 45.7325 60.9877 45.7325C61.2677 45.7325 61.5327 45.6875 61.7827 45.5975C62.0327 45.5025 62.2502 45.3525 62.4352 45.1475C62.6252 44.9425 62.7727 44.6725 62.8777 44.3375C62.9877 44.0025 63.0427 43.595 63.0427 43.115L64.0177 43.4825C64.0177 44.2175 63.8802 44.8675 63.6052 45.4325C63.3302 45.9925 62.9352 46.43 62.4202 46.745C61.9052 47.06 61.2827 47.2175 60.5527 47.2175ZM63.2302 47V44.66H63.0427V38.9H64.6252V47H63.2302ZM70.5312 47.225C69.7562 47.225 69.1062 47.0375 68.5812 46.6625C68.0562 46.2825 67.6587 45.77 67.3887 45.125C67.1187 44.48 66.9837 43.7525 66.9837 42.9425C66.9837 42.1325 67.1162 41.405 67.3812 40.76C67.6512 40.115 68.0462 39.6075 68.5662 39.2375C69.0912 38.8625 69.7362 38.675 70.5012 38.675C71.2612 38.675 71.9162 38.8625 72.4662 39.2375C73.0212 39.6075 73.4487 40.115 73.7487 40.76C74.0487 41.4 74.1987 42.1275 74.1987 42.9425C74.1987 43.7525 74.0487 44.4825 73.7487 45.1325C73.4537 45.7775 73.0312 46.2875 72.4812 46.6625C71.9362 47.0375 71.2862 47.225 70.5312 47.225ZM66.7212 50.6V38.9H68.1162V44.7275H68.2962V50.6H66.7212ZM70.3137 45.8075C70.8137 45.8075 71.2262 45.68 71.5512 45.425C71.8812 45.17 72.1262 44.8275 72.2862 44.3975C72.4512 43.9625 72.5337 43.4775 72.5337 42.9425C72.5337 42.4125 72.4512 41.9325 72.2862 41.5025C72.1262 41.0725 71.8787 40.73 71.5437 40.475C71.2087 40.22 70.7812 40.0925 70.2612 40.0925C69.7712 40.0925 69.3662 40.2125 69.0462 40.4525C68.7312 40.6925 68.4962 41.0275 68.3412 41.4575C68.1912 41.8875 68.1162 42.3825 68.1162 42.9425C68.1162 43.5025 68.1912 43.9975 68.3412 44.4275C68.4912 44.8575 68.7287 45.195 69.0537 45.44C69.3787 45.685 69.7987 45.8075 70.3137 45.8075ZM76.0047 47V35.975H77.5722V47H76.0047ZM83.3419 47.225C82.5319 47.225 81.8294 47.0425 81.2344 46.6775C80.6394 46.3125 80.1794 45.81 79.8544 45.17C79.5344 44.525 79.3744 43.7825 79.3744 42.9425C79.3744 42.0975 79.5394 41.355 79.8694 40.715C80.1994 40.07 80.6619 39.57 81.2569 39.215C81.8519 38.855 82.5469 38.675 83.3419 38.675C84.1519 38.675 84.8544 38.8575 85.4494 39.2225C86.0444 39.5875 86.5044 40.09 86.8294 40.73C87.1544 41.37 87.3169 42.1075 87.3169 42.9425C87.3169 43.7875 87.1519 44.5325 86.8219 45.1775C86.4969 45.8175 86.0369 46.32 85.4419 46.685C84.8469 47.045 84.1469 47.225 83.3419 47.225ZM83.3419 45.7475C84.1169 45.7475 84.6944 45.4875 85.0744 44.9675C85.4594 44.4425 85.6519 43.7675 85.6519 42.9425C85.6519 42.0975 85.4569 41.4225 85.0669 40.9175C84.6819 40.4075 84.1069 40.1525 83.3419 40.1525C82.8169 40.1525 82.3844 40.2725 82.0444 40.5125C81.7044 40.7475 81.4519 41.075 81.2869 41.495C81.1219 41.91 81.0394 42.3925 81.0394 42.9425C81.0394 43.7925 81.2344 44.4725 81.6244 44.9825C82.0144 45.4925 82.5869 45.7475 83.3419 45.7475ZM91.2525 47.225C90.6525 47.225 90.15 47.115 89.745 46.895C89.34 46.67 89.0325 46.375 88.8225 46.01C88.6175 45.64 88.515 45.235 88.515 44.795C88.515 44.385 88.5875 44.025 88.7325 43.715C88.8775 43.405 89.0925 43.1425 89.3775 42.9275C89.6625 42.7075 90.0125 42.53 90.4275 42.395C90.7875 42.29 91.195 42.1975 91.65 42.1175C92.105 42.0375 92.5825 41.9625 93.0825 41.8925C93.5875 41.8225 94.0875 41.7525 94.5825 41.6825L94.0125 41.9975C94.0225 41.3625 93.8875 40.8925 93.6075 40.5875C93.3325 40.2775 92.8575 40.1225 92.1825 40.1225C91.7575 40.1225 91.3675 40.2225 91.0125 40.4225C90.6575 40.6175 90.41 40.9425 90.27 41.3975L88.8075 40.9475C89.0075 40.2525 89.3875 39.7 89.9475 39.29C90.5125 38.88 91.2625 38.675 92.1975 38.675C92.9225 38.675 93.5525 38.8 94.0875 39.05C94.6275 39.295 95.0225 39.685 95.2725 40.22C95.4025 40.485 95.4825 40.765 95.5125 41.06C95.5425 41.355 95.5575 41.6725 95.5575 42.0125V47H94.17V45.1475L94.44 45.3875C94.105 46.0075 93.6775 46.47 93.1575 46.775C92.6425 47.075 92.0075 47.225 91.2525 47.225ZM91.53 45.9425C91.975 45.9425 92.3575 45.865 92.6775 45.71C92.9975 45.55 93.255 45.3475 93.45 45.1025C93.645 44.8575 93.7725 44.6025 93.8325 44.3375C93.9175 44.0975 93.965 43.8275 93.975 43.5275C93.99 43.2275 93.9975 42.9875 93.9975 42.8075L94.5075 42.995C94.0125 43.07 93.5625 43.1375 93.1575 43.1975C92.7525 43.2575 92.385 43.3175 92.055 43.3775C91.73 43.4325 91.44 43.5 91.185 43.58C90.97 43.655 90.7775 43.745 90.6075 43.85C90.4425 43.955 90.31 44.0825 90.21 44.2325C90.115 44.3825 90.0675 44.565 90.0675 44.78C90.0675 44.99 90.12 45.185 90.225 45.365C90.33 45.54 90.49 45.68 90.705 45.785C90.92 45.89 91.195 45.9425 91.53 45.9425ZM100.723 47.225C99.9676 47.225 99.3151 47.0375 98.7651 46.6625C98.2201 46.2875 97.7976 45.7775 97.4976 45.1325C97.2026 44.4825 97.0551 43.7525 97.0551 42.9425C97.0551 42.1275 97.2051 41.4 97.5051 40.76C97.8051 40.115 98.2301 39.6075 98.7801 39.2375C99.3351 38.8625 99.9926 38.675 100.753 38.675C101.518 38.675 102.16 38.8625 102.68 39.2375C103.205 39.6075 103.6 40.115 103.865 40.76C104.135 41.405 104.27 42.1325 104.27 42.9425C104.27 43.7525 104.135 44.48 103.865 45.125C103.595 45.77 103.198 46.2825 102.673 46.6625C102.148 47.0375 101.498 47.225 100.723 47.225ZM100.94 45.8075C101.455 45.8075 101.875 45.685 102.2 45.44C102.525 45.195 102.763 44.8575 102.913 44.4275C103.063 43.9975 103.138 43.5025 103.138 42.9425C103.138 42.3825 103.06 41.8875 102.905 41.4575C102.755 41.0275 102.52 40.6925 102.2 40.4525C101.885 40.2125 101.483 40.0925 100.993 40.0925C100.473 40.0925 100.045 40.22 99.7101 40.475C99.3751 40.73 99.1251 41.0725 98.9601 41.5025C98.8001 41.9325 98.7201 42.4125 98.7201 42.9425C98.7201 43.4775 98.8001 43.9625 98.9601 44.3975C99.1251 44.8275 99.3701 45.17 99.6951 45.425C100.025 45.68 100.44 45.8075 100.94 45.8075ZM103.138 47V41.1725H102.958V36.2H104.533V47H103.138ZM109.784 47V35.975H111.351V47H109.784ZM117.121 47.225C116.311 47.225 115.609 47.0425 115.014 46.6775C114.419 46.3125 113.959 45.81 113.634 45.17C113.314 44.525 113.154 43.7825 113.154 42.9425C113.154 42.0975 113.319 41.355 113.649 40.715C113.979 40.07 114.441 39.57 115.036 39.215C115.631 38.855 116.326 38.675 117.121 38.675C117.931 38.675 118.634 38.8575 119.229 39.2225C119.824 39.5875 120.284 40.09 120.609 40.73C120.934 41.37 121.096 42.1075 121.096 42.9425C121.096 43.7875 120.931 44.5325 120.601 45.1775C120.276 45.8175 119.816 46.32 119.221 46.685C118.626 47.045 117.926 47.225 117.121 47.225ZM117.121 45.7475C117.896 45.7475 118.474 45.4875 118.854 44.9675C119.239 44.4425 119.431 43.7675 119.431 42.9425C119.431 42.0975 119.236 41.4225 118.846 40.9175C118.461 40.4075 117.886 40.1525 117.121 40.1525C116.596 40.1525 116.164 40.2725 115.824 40.5125C115.484 40.7475 115.231 41.075 115.066 41.495C114.901 41.91 114.819 42.3925 114.819 42.9425C114.819 43.7925 115.014 44.4725 115.404 44.9825C115.794 45.4925 116.366 45.7475 117.121 45.7475ZM126.082 50.825C125.647 50.825 125.224 50.7575 124.814 50.6225C124.409 50.4875 124.039 50.2875 123.704 50.0225C123.369 49.7625 123.092 49.44 122.872 49.055L124.319 48.32C124.494 48.665 124.744 48.9175 125.069 49.0775C125.394 49.2375 125.737 49.3175 126.097 49.3175C126.542 49.3175 126.922 49.2375 127.237 49.0775C127.552 48.9225 127.789 48.6875 127.949 48.3725C128.114 48.0575 128.194 47.6675 128.189 47.2025V44.9375H128.377V38.9H129.764V47.2175C129.764 47.4325 129.757 47.6375 129.742 47.8325C129.727 48.0275 129.699 48.2225 129.659 48.4175C129.544 48.9625 129.324 49.4125 128.999 49.7675C128.679 50.1225 128.269 50.3875 127.769 50.5625C127.274 50.7375 126.712 50.825 126.082 50.825ZM125.962 47.225C125.207 47.225 124.554 47.0375 124.004 46.6625C123.459 46.2875 123.037 45.7775 122.737 45.1325C122.442 44.4825 122.294 43.7525 122.294 42.9425C122.294 42.1275 122.444 41.4 122.744 40.76C123.044 40.115 123.469 39.6075 124.019 39.2375C124.574 38.8625 125.232 38.675 125.992 38.675C126.757 38.675 127.399 38.8625 127.919 39.2375C128.444 39.6075 128.839 40.115 129.104 40.76C129.374 41.405 129.509 42.1325 129.509 42.9425C129.509 43.7525 129.374 44.48 129.104 45.125C128.834 45.77 128.437 46.2825 127.912 46.6625C127.387 47.0375 126.737 47.225 125.962 47.225ZM126.179 45.8075C126.694 45.8075 127.114 45.685 127.439 45.44C127.764 45.195 128.002 44.8575 128.152 44.4275C128.302 43.9975 128.377 43.5025 128.377 42.9425C128.377 42.3825 128.299 41.8875 128.144 41.4575C127.994 41.0275 127.759 40.6925 127.439 40.4525C127.124 40.2125 126.722 40.0925 126.232 40.0925C125.712 40.0925 125.284 40.22 124.949 40.475C124.614 40.73 124.364 41.0725 124.199 41.5025C124.039 41.9325 123.959 42.4125 123.959 42.9425C123.959 43.4775 124.039 43.9625 124.199 44.3975C124.364 44.8275 124.609 45.17 124.934 45.425C125.264 45.68 125.679 45.8075 126.179 45.8075ZM135.388 47.225C134.578 47.225 133.875 47.0425 133.28 46.6775C132.685 46.3125 132.225 45.81 131.9 45.17C131.58 44.525 131.42 43.7825 131.42 42.9425C131.42 42.0975 131.585 41.355 131.915 40.715C132.245 40.07 132.708 39.57 133.303 39.215C133.898 38.855 134.593 38.675 135.388 38.675C136.198 38.675 136.9 38.8575 137.495 39.2225C138.09 39.5875 138.55 40.09 138.875 40.73C139.2 41.37 139.363 42.1075 139.363 42.9425C139.363 43.7875 139.198 44.5325 138.868 45.1775C138.543 45.8175 138.083 46.32 137.488 46.685C136.893 47.045 136.193 47.225 135.388 47.225ZM135.388 45.7475C136.163 45.7475 136.74 45.4875 137.12 44.9675C137.505 44.4425 137.698 43.7675 137.698 42.9425C137.698 42.0975 137.503 41.4225 137.113 40.9175C136.728 40.4075 136.153 40.1525 135.388 40.1525C134.863 40.1525 134.43 40.2725 134.09 40.5125C133.75 40.7475 133.498 41.075 133.333 41.495C133.168 41.91 133.085 42.3925 133.085 42.9425C133.085 43.7925 133.28 44.4725 133.67 44.9825C134.06 45.4925 134.633 45.7475 135.388 45.7475Z" fill="#3900B1"/>
<path d="M22.4492 70.21C21.6978 70.21 21.0608 70.0397 20.5382 69.699C20.0155 69.3583 19.6165 68.887 19.3412 68.285C19.0658 67.683 18.9282 66.99 18.9282 66.206C18.9282 65.4173 19.0682 64.7243 19.3482 64.127C19.6282 63.525 20.0295 63.0583 20.5522 62.727C21.0795 62.3957 21.7118 62.23 22.4492 62.23C23.2005 62.23 23.8375 62.4003 24.3602 62.741C24.8875 63.077 25.2865 63.5437 25.5572 64.141C25.8325 64.7383 25.9702 65.4267 25.9702 66.206C25.9702 67.004 25.8325 67.704 25.5572 68.306C25.2818 68.9033 24.8805 69.37 24.3532 69.706C23.8258 70.042 23.1912 70.21 22.4492 70.21ZM22.4492 69.426C23.3405 69.426 24.0055 69.1273 24.4442 68.53C24.8875 67.9327 25.1092 67.158 25.1092 66.206C25.1092 65.2353 24.8875 64.4607 24.4442 63.882C24.0008 63.3033 23.3358 63.014 22.4492 63.014C21.8472 63.014 21.3502 63.1517 20.9582 63.427C20.5662 63.6977 20.2722 64.0733 20.0762 64.554C19.8848 65.03 19.7892 65.5807 19.7892 66.206C19.7892 67.1767 20.0132 67.956 20.4612 68.544C20.9138 69.132 21.5765 69.426 22.4492 69.426ZM27.5103 70V62.44H28.2453V64.253L28.0633 64.015C28.1473 63.8003 28.2523 63.602 28.3783 63.42C28.5089 63.2333 28.6419 63.0817 28.7773 62.965C28.9779 62.7783 29.2136 62.6383 29.4843 62.545C29.7549 62.447 30.0279 62.391 30.3033 62.377C30.5786 62.3583 30.8283 62.3793 31.0523 62.44V63.203C30.7536 63.133 30.4363 63.119 30.1003 63.161C29.7643 63.203 29.4493 63.3477 29.1553 63.595C28.8986 63.819 28.7119 64.0803 28.5953 64.379C28.4786 64.673 28.4039 64.9833 28.3713 65.31C28.3386 65.632 28.3223 65.947 28.3223 66.255V70H27.5103ZM38.0852 70.21C37.3712 70.21 36.7669 70.035 36.2722 69.685C35.7822 69.3303 35.4065 68.852 35.1452 68.25C34.8885 67.6433 34.7602 66.962 34.7602 66.206C34.7602 65.4593 34.8885 64.785 35.1452 64.183C35.4019 63.581 35.7705 63.105 36.2512 62.755C36.7365 62.405 37.3222 62.23 38.0082 62.23C38.7129 62.23 39.3079 62.4027 39.7932 62.748C40.2785 63.0933 40.6449 63.567 40.8922 64.169C41.1395 64.7663 41.2632 65.4453 41.2632 66.206C41.2632 66.962 41.1395 67.641 40.8922 68.243C40.6449 68.845 40.2855 69.3233 39.8142 69.678C39.3429 70.0327 38.7665 70.21 38.0852 70.21ZM38.1342 69.44C38.6989 69.44 39.1679 69.3 39.5412 69.02C39.9192 68.7353 40.1992 68.3503 40.3812 67.865C40.5679 67.375 40.6612 66.822 40.6612 66.206C40.6612 65.5853 40.5679 65.0323 40.3812 64.547C40.1945 64.0617 39.9145 63.6837 39.5412 63.413C39.1679 63.1377 38.7035 63 38.1482 63C37.5742 63 37.1005 63.1423 36.7272 63.427C36.3539 63.707 36.0762 64.0897 35.8942 64.575C35.7122 65.0557 35.6212 65.5993 35.6212 66.206C35.6212 66.8173 35.7145 67.368 35.9012 67.858C36.0925 68.3433 36.3725 68.7283 36.7412 69.013C37.1145 69.2977 37.5789 69.44 38.1342 69.44ZM40.6612 70V64.176H40.5912V59.92H41.3962V70H40.6612ZM43.356 70V62.44H44.091V64.253L43.909 64.015C43.993 63.8003 44.098 63.602 44.224 63.42C44.3546 63.2333 44.4876 63.0817 44.623 62.965C44.8236 62.7783 45.0593 62.6383 45.33 62.545C45.6006 62.447 45.8736 62.391 46.149 62.377C46.4243 62.3583 46.674 62.3793 46.898 62.44V63.203C46.5993 63.133 46.282 63.119 45.946 63.161C45.61 63.203 45.295 63.3477 45.001 63.595C44.7443 63.819 44.5576 64.0803 44.441 64.379C44.3243 64.673 44.2496 64.9833 44.217 65.31C44.1843 65.632 44.168 65.947 44.168 66.255V70H43.356ZM50.0927 70.21C49.5094 70.21 49.024 70.1073 48.6367 69.902C48.254 69.6967 47.967 69.426 47.7757 69.09C47.5844 68.7493 47.4887 68.3807 47.4887 67.984C47.4887 67.5547 47.5774 67.1953 47.7547 66.906C47.9367 66.6167 48.177 66.3833 48.4757 66.206C48.779 66.0287 49.1127 65.8957 49.4767 65.807C49.892 65.7137 50.34 65.6343 50.8207 65.569C51.3014 65.499 51.7587 65.4383 52.1927 65.387C52.6314 65.3357 52.9884 65.2913 53.2637 65.254L52.9697 65.429C52.9884 64.6123 52.8344 64.0057 52.5077 63.609C52.1857 63.2077 51.6164 63.007 50.7997 63.007C50.2257 63.007 49.752 63.1377 49.3787 63.399C49.01 63.6557 48.751 64.0547 48.6017 64.596L47.7757 64.365C47.9484 63.679 48.296 63.1517 48.8187 62.783C49.3414 62.4143 50.011 62.23 50.8277 62.23C51.523 62.23 52.1064 62.3653 52.5777 62.636C53.0537 62.9067 53.385 63.287 53.5717 63.777C53.651 63.9777 53.7047 64.2133 53.7327 64.484C53.7607 64.75 53.7747 65.0183 53.7747 65.289V70H53.0397V68.012L53.3127 68.082C53.084 68.7633 52.685 69.2883 52.1157 69.657C51.5464 70.0257 50.872 70.21 50.0927 70.21ZM50.1347 69.468C50.648 69.468 51.0984 69.377 51.4857 69.195C51.873 69.0083 52.1857 68.7493 52.4237 68.418C52.6664 68.082 52.8204 67.6877 52.8857 67.235C52.9324 66.983 52.958 66.71 52.9627 66.416C52.9674 66.122 52.9697 65.905 52.9697 65.765L53.3197 65.989C53.0164 66.0263 52.6524 66.066 52.2277 66.108C51.8077 66.15 51.3784 66.2013 50.9397 66.262C50.501 66.3227 50.1044 66.3997 49.7497 66.493C49.5304 66.5537 49.3087 66.6423 49.0847 66.759C48.8654 66.871 48.681 67.0273 48.5317 67.228C48.387 67.4287 48.3147 67.683 48.3147 67.991C48.3147 68.2197 48.3707 68.4483 48.4827 68.677C48.5994 68.9057 48.7907 69.0947 49.0567 69.244C49.3227 69.3933 49.682 69.468 50.1347 69.468ZM58.5323 73.57C58.159 73.57 57.7856 73.514 57.4123 73.402C57.0436 73.2947 56.6983 73.1173 56.3763 72.87C56.0543 72.6273 55.7813 72.303 55.5573 71.897L56.2853 71.463C56.514 71.9297 56.8383 72.2633 57.2583 72.464C57.6783 72.6647 58.1053 72.765 58.5393 72.765C59.1506 72.765 59.6336 72.6507 59.9883 72.422C60.3476 72.198 60.6043 71.8597 60.7583 71.407C60.9123 70.959 60.9893 70.4013 60.9893 69.734V67.753H61.0733V62.44H61.8083V69.734C61.8083 69.958 61.8036 70.1727 61.7943 70.378C61.785 70.5833 61.764 70.7887 61.7313 70.994C61.6473 71.5773 61.4746 72.058 61.2133 72.436C60.952 72.8187 60.5973 73.1033 60.1493 73.29C59.706 73.4767 59.167 73.57 58.5323 73.57ZM58.4973 70.21C57.7833 70.21 57.179 70.035 56.6843 69.685C56.1943 69.3303 55.8186 68.852 55.5573 68.25C55.3006 67.6433 55.1723 66.962 55.1723 66.206C55.1723 65.4593 55.3006 64.785 55.5573 64.183C55.814 63.581 56.1826 63.105 56.6633 62.755C57.1486 62.405 57.7343 62.23 58.4203 62.23C59.125 62.23 59.72 62.4027 60.2053 62.748C60.6906 63.0933 61.057 63.567 61.3043 64.169C61.5516 64.7663 61.6753 65.4453 61.6753 66.206C61.6753 66.962 61.5516 67.641 61.3043 68.243C61.057 68.845 60.6976 69.3233 60.2263 69.678C59.755 70.0327 59.1786 70.21 58.4973 70.21ZM58.5463 69.44C59.111 69.44 59.58 69.3 59.9533 69.02C60.3313 68.7353 60.6113 68.3503 60.7933 67.865C60.98 67.375 61.0733 66.822 61.0733 66.206C61.0733 65.5853 60.98 65.0323 60.7933 64.547C60.6066 64.0617 60.3266 63.6837 59.9533 63.413C59.58 63.1377 59.1156 63 58.5603 63C57.9863 63 57.5126 63.1423 57.1393 63.427C56.766 63.707 56.4883 64.0897 56.3063 64.575C56.1243 65.0557 56.0333 65.5993 56.0333 66.206C56.0333 66.8173 56.1266 67.368 56.3133 67.858C56.5046 68.3433 56.7846 68.7283 57.1533 69.013C57.5266 69.2977 57.991 69.44 58.5463 69.44ZM68.7548 70.21C68.1715 70.21 67.6862 70.1073 67.2988 69.902C66.9162 69.6967 66.6292 69.426 66.4378 69.09C66.2465 68.7493 66.1508 68.3807 66.1508 67.984C66.1508 67.5547 66.2395 67.1953 66.4168 66.906C66.5988 66.6167 66.8392 66.3833 67.1378 66.206C67.4412 66.0287 67.7748 65.8957 68.1388 65.807C68.5542 65.7137 69.0022 65.6343 69.4828 65.569C69.9635 65.499 70.4208 65.4383 70.8548 65.387C71.2935 65.3357 71.6505 65.2913 71.9258 65.254L71.6318 65.429C71.6505 64.6123 71.4965 64.0057 71.1698 63.609C70.8478 63.2077 70.2785 63.007 69.4618 63.007C68.8878 63.007 68.4142 63.1377 68.0408 63.399C67.6722 63.6557 67.4132 64.0547 67.2638 64.596L66.4378 64.365C66.6105 63.679 66.9582 63.1517 67.4808 62.783C68.0035 62.4143 68.6732 62.23 69.4898 62.23C70.1852 62.23 70.7685 62.3653 71.2398 62.636C71.7158 62.9067 72.0472 63.287 72.2338 63.777C72.3132 63.9777 72.3668 64.2133 72.3948 64.484C72.4228 64.75 72.4368 65.0183 72.4368 65.289V70H71.7018V68.012L71.9748 68.082C71.7462 68.7633 71.3472 69.2883 70.7778 69.657C70.2085 70.0257 69.5342 70.21 68.7548 70.21ZM68.7968 69.468C69.3102 69.468 69.7605 69.377 70.1478 69.195C70.5352 69.0083 70.8478 68.7493 71.0858 68.418C71.3285 68.082 71.4825 67.6877 71.5478 67.235C71.5945 66.983 71.6202 66.71 71.6248 66.416C71.6295 66.122 71.6318 65.905 71.6318 65.765L71.9818 65.989C71.6785 66.0263 71.3145 66.066 70.8898 66.108C70.4698 66.15 70.0405 66.2013 69.6018 66.262C69.1632 66.3227 68.7665 66.3997 68.4118 66.493C68.1925 66.5537 67.9708 66.6423 67.7468 66.759C67.5275 66.871 67.3432 67.0273 67.1938 67.228C67.0492 67.4287 66.9768 67.683 66.9768 67.991C66.9768 68.2197 67.0328 68.4483 67.1448 68.677C67.2615 68.9057 67.4528 69.0947 67.7188 69.244C67.9848 69.3933 68.3442 69.468 68.7968 69.468ZM79.7914 70V66.066C79.7914 65.59 79.7424 65.1653 79.6444 64.792C79.5511 64.4187 79.4064 64.1013 79.2104 63.84C79.0191 63.5787 78.7764 63.3803 78.4824 63.245C78.1931 63.1097 77.8501 63.042 77.4534 63.042C77.0427 63.042 76.6857 63.1143 76.3824 63.259C76.0837 63.399 75.8364 63.5973 75.6404 63.854C75.4491 64.1107 75.3044 64.4163 75.2064 64.771C75.1131 65.121 75.0664 65.5037 75.0664 65.919L74.4294 65.842C74.4294 65.0253 74.5671 64.3533 74.8424 63.826C75.1224 63.294 75.4981 62.902 75.9694 62.65C76.4407 62.3933 76.9704 62.265 77.5584 62.265C77.9737 62.265 78.3447 62.3257 78.6714 62.447C79.0027 62.5683 79.2897 62.741 79.5324 62.965C79.7751 63.1843 79.9757 63.4457 80.1344 63.749C80.2931 64.0477 80.4097 64.3767 80.4844 64.736C80.5637 65.0953 80.6034 65.471 80.6034 65.863V70H79.7914ZM74.2544 70V62.44H74.9894V64.141H75.0664V70H74.2544ZM85.2942 70.21C84.5802 70.21 83.9758 70.035 83.4812 69.685C82.9912 69.3303 82.6155 68.852 82.3542 68.25C82.0975 67.6433 81.9692 66.962 81.9692 66.206C81.9692 65.4593 82.0975 64.785 82.3542 64.183C82.6108 63.581 82.9795 63.105 83.4602 62.755C83.9455 62.405 84.5312 62.23 85.2172 62.23C85.9218 62.23 86.5168 62.4027 87.0022 62.748C87.4875 63.0933 87.8538 63.567 88.1012 64.169C88.3485 64.7663 88.4722 65.4453 88.4722 66.206C88.4722 66.962 88.3485 67.641 88.1012 68.243C87.8538 68.845 87.4945 69.3233 87.0232 69.678C86.5518 70.0327 85.9755 70.21 85.2942 70.21ZM85.3432 69.44C85.9078 69.44 86.3768 69.3 86.7502 69.02C87.1282 68.7353 87.4082 68.3503 87.5902 67.865C87.7768 67.375 87.8702 66.822 87.8702 66.206C87.8702 65.5853 87.7768 65.0323 87.5902 64.547C87.4035 64.0617 87.1235 63.6837 86.7502 63.413C86.3768 63.1377 85.9125 63 85.3572 63C84.7832 63 84.3095 63.1423 83.9362 63.427C83.5628 63.707 83.2852 64.0897 83.1032 64.575C82.9212 65.0557 82.8302 65.5993 82.8302 66.206C82.8302 66.8173 82.9235 67.368 83.1102 67.858C83.3015 68.3433 83.5815 68.7283 83.9502 69.013C84.3235 69.2977 84.7878 69.44 85.3432 69.44ZM87.8702 70V64.176H87.8002V59.92H88.6052V70H87.8702ZM96.2727 70.21C95.5587 70.21 94.9544 70.035 94.4597 69.685C93.9697 69.3303 93.594 68.852 93.3327 68.25C93.076 67.6433 92.9477 66.962 92.9477 66.206C92.9477 65.4593 93.076 64.785 93.3327 64.183C93.5894 63.581 93.958 63.105 94.4387 62.755C94.924 62.405 95.5097 62.23 96.1957 62.23C96.9004 62.23 97.4954 62.4027 97.9807 62.748C98.466 63.0933 98.8324 63.567 99.0797 64.169C99.327 64.7663 99.4507 65.4453 99.4507 66.206C99.4507 66.962 99.327 67.641 99.0797 68.243C98.8324 68.845 98.473 69.3233 98.0017 69.678C97.5304 70.0327 96.954 70.21 96.2727 70.21ZM96.3217 69.44C96.8864 69.44 97.3554 69.3 97.7287 69.02C98.1067 68.7353 98.3867 68.3503 98.5687 67.865C98.7554 67.375 98.8487 66.822 98.8487 66.206C98.8487 65.5853 98.7554 65.0323 98.5687 64.547C98.382 64.0617 98.102 63.6837 97.7287 63.413C97.3554 63.1377 96.891 63 96.3357 63C95.7617 63 95.288 63.1423 94.9147 63.427C94.5414 63.707 94.2637 64.0897 94.0817 64.575C93.8997 65.0557 93.8087 65.5993 93.8087 66.206C93.8087 66.8173 93.902 67.368 94.0887 67.858C94.28 68.3433 94.56 68.7283 94.9287 69.013C95.302 69.2977 95.7664 69.44 96.3217 69.44ZM98.8487 70V64.176H98.7787V59.92H99.5837V70H98.8487ZM101.543 70V62.44H102.278V64.253L102.096 64.015C102.18 63.8003 102.285 63.602 102.411 63.42C102.542 63.2333 102.675 63.0817 102.81 62.965C103.011 62.7783 103.247 62.6383 103.517 62.545C103.788 62.447 104.061 62.391 104.336 62.377C104.612 62.3583 104.861 62.3793 105.085 62.44V63.203C104.787 63.133 104.469 63.119 104.133 63.161C103.797 63.203 103.482 63.3477 103.188 63.595C102.932 63.819 102.745 64.0803 102.628 64.379C102.512 64.673 102.437 64.9833 102.404 65.31C102.372 65.632 102.355 65.947 102.355 66.255V70H101.543ZM109.375 70.21C108.624 70.21 107.987 70.0397 107.464 69.699C106.941 69.3583 106.542 68.887 106.267 68.285C105.992 67.683 105.854 66.99 105.854 66.206C105.854 65.4173 105.994 64.7243 106.274 64.127C106.554 63.525 106.955 63.0583 107.478 62.727C108.005 62.3957 108.638 62.23 109.375 62.23C110.126 62.23 110.763 62.4003 111.286 62.741C111.813 63.077 112.212 63.5437 112.483 64.141C112.758 64.7383 112.896 65.4267 112.896 66.206C112.896 67.004 112.758 67.704 112.483 68.306C112.208 68.9033 111.806 69.37 111.279 69.706C110.752 70.042 110.117 70.21 109.375 70.21ZM109.375 69.426C110.266 69.426 110.931 69.1273 111.37 68.53C111.813 67.9327 112.035 67.158 112.035 66.206C112.035 65.2353 111.813 64.4607 111.37 63.882C110.927 63.3033 110.262 63.014 109.375 63.014C108.773 63.014 108.276 63.1517 107.884 63.427C107.492 63.6977 107.198 64.0733 107.002 64.554C106.811 65.03 106.715 65.5807 106.715 66.206C106.715 67.1767 106.939 67.956 107.387 68.544C107.84 69.132 108.502 69.426 109.375 69.426ZM117.747 70.21C117.066 70.21 116.489 70.0327 116.018 69.678C115.547 69.3233 115.187 68.845 114.94 68.243C114.693 67.641 114.569 66.962 114.569 66.206C114.569 65.4453 114.693 64.7663 114.94 64.169C115.187 63.567 115.554 63.0933 116.039 62.748C116.524 62.4027 117.119 62.23 117.824 62.23C118.51 62.23 119.096 62.405 119.581 62.755C120.066 63.105 120.435 63.581 120.687 64.183C120.944 64.785 121.072 65.4593 121.072 66.206C121.072 66.962 120.941 67.6433 120.68 68.25C120.423 68.852 120.048 69.3303 119.553 69.685C119.063 70.035 118.461 70.21 117.747 70.21ZM114.436 73.36V62.44H115.171V68.264H115.241V73.36H114.436ZM117.698 69.44C118.253 69.44 118.715 69.2977 119.084 69.013C119.457 68.7283 119.737 68.3433 119.924 67.858C120.115 67.368 120.211 66.8173 120.211 66.206C120.211 65.5993 120.118 65.0557 119.931 64.575C119.749 64.0897 119.471 63.707 119.098 63.427C118.729 63.1423 118.258 63 117.684 63C117.129 63 116.664 63.1377 116.291 63.413C115.918 63.6837 115.638 64.0617 115.451 64.547C115.264 65.0323 115.171 65.5853 115.171 66.206C115.171 66.822 115.262 67.375 115.444 67.865C115.631 68.3503 115.911 68.7353 116.284 69.02C116.662 69.3 117.133 69.44 117.698 69.44Z" fill="#9C9C9C"/>
<path d="M62 13V19.5H78V13" stroke="#3900B1" stroke-width="2" stroke-linecap="round" stroke-linejoin="round"/>
<path d="M69 15C69 15.5523 69.4477 16 70 16C70.5523 16 71 15.5523 71 15H69ZM70.7071 0.292893C70.3166 -0.0976315 69.6834 -0.0976315 69.2929 0.292893L62.9289 6.65685C62.5384 7.04738 62.5384 7.68054 62.9289 8.07107C63.3195 8.46159 63.9526 8.46159 64.3431 8.07107L70 2.41421L75.6569 8.07107C76.0474 8.46159 76.6805 8.46159 77.0711 8.07107C77.4616 7.68054 77.4616 7.04738 77.0711 6.65685L70.7071 0.292893ZM71 15V1H69V15H71Z" fill="#3900B1"/>
</svg>
